G04 DipTrace 2.4.0.2*
%INBottomSilk.gbr*%
%MOIN*%
%ADD106C,0.0046*%
%ADD107C,0.0077*%
%FSLAX44Y44*%
G04*
G70*
G90*
G75*
G01*
%LNBotSilk*%
%LPD*%
X6859Y6894D2*
D106*
X6830Y6923D1*
X6816Y6966D1*
Y7023D1*
X6830Y7066D1*
X6859Y7095D1*
X6887D1*
X6916Y7081D1*
X6930Y7066D1*
X6945Y7038D1*
X6973Y6952D1*
X6988Y6923D1*
X7002Y6908D1*
X7031Y6894D1*
X7074D1*
X7102Y6923D1*
X7117Y6966D1*
Y7023D1*
X7102Y7066D1*
X7074Y7095D1*
X6816Y6802D2*
X7117Y6730D1*
X6816Y6658D1*
X7117Y6586D1*
X6816Y6514D1*
X6887Y6206D2*
X6859Y6221D1*
X6830Y6250D1*
X6816Y6278D1*
Y6335D1*
X6830Y6364D1*
X6859Y6393D1*
X6887Y6407D1*
X6930Y6422D1*
X7002D1*
X7045Y6407D1*
X7074Y6393D1*
X7102Y6364D1*
X7117Y6335D1*
Y6278D1*
X7102Y6250D1*
X7074Y6221D1*
X7045Y6206D1*
X6816Y6114D2*
X7117D1*
Y5942D1*
X6816Y5849D2*
X7117D1*
X6816Y5648D2*
X7017Y5849D1*
X6945Y5777D2*
X7117Y5648D1*
X7859Y6861D2*
X7830Y6890D1*
X7816Y6933D1*
Y6990D1*
X7830Y7033D1*
X7859Y7062D1*
X7887D1*
X7916Y7048D1*
X7930Y7033D1*
X7945Y7005D1*
X7973Y6919D1*
X7988Y6890D1*
X8002Y6876D1*
X8031Y6861D1*
X8074D1*
X8102Y6890D1*
X8117Y6933D1*
Y6990D1*
X8102Y7033D1*
X8074Y7062D1*
X7816Y6769D2*
X8117Y6697D1*
X7816Y6625D1*
X8117Y6553D1*
X7816Y6482D1*
Y6389D2*
X8117D1*
Y6288D1*
X8102Y6245D1*
X8074Y6216D1*
X8045Y6202D1*
X8002Y6188D1*
X7930D1*
X7887Y6202D1*
X7859Y6216D1*
X7830Y6245D1*
X7816Y6288D1*
Y6389D1*
Y6095D2*
X8117D1*
X7816Y5916D2*
X7830Y5945D1*
X7859Y5974D1*
X7887Y5988D1*
X7930Y6003D1*
X8002D1*
X8045Y5988D1*
X8074Y5974D1*
X8102Y5945D1*
X8117Y5916D1*
Y5859D1*
X8102Y5831D1*
X8074Y5802D1*
X8045Y5787D1*
X8002Y5773D1*
X7930D1*
X7887Y5787D1*
X7859Y5802D1*
X7830Y5831D1*
X7816Y5859D1*
Y5916D1*
X8816Y6779D2*
X9117D1*
X8816Y6980D1*
X9117D1*
X8959Y6686D2*
Y6557D1*
X8945Y6514D1*
X8930Y6500D1*
X8902Y6485D1*
X8873D1*
X8845Y6500D1*
X8830Y6514D1*
X8816Y6557D1*
Y6686D1*
X9117D1*
X8959Y6586D2*
X9117Y6485D1*
X8859Y6192D2*
X8830Y6220D1*
X8816Y6263D1*
Y6321D1*
X8830Y6364D1*
X8859Y6393D1*
X8887D1*
X8916Y6378D1*
X8930Y6364D1*
X8945Y6335D1*
X8974Y6249D1*
X8988Y6220D1*
X9002Y6206D1*
X9031Y6192D1*
X9074D1*
X9102Y6220D1*
X9117Y6263D1*
Y6321D1*
X9102Y6364D1*
X9074Y6393D1*
X8816Y5999D2*
X9117D1*
X8816Y6099D2*
Y5898D1*
X20391Y19497D2*
D107*
X20893D1*
Y19329D1*
X20869Y19257D1*
X20821Y19209D1*
X20773Y19186D1*
X20702Y19162D1*
X20582D1*
X20510Y19186D1*
X20463Y19209D1*
X20414Y19257D1*
X20391Y19329D1*
Y19497D1*
Y19007D2*
X20893Y18888D1*
X20391Y18768D1*
X20893Y18649D1*
X20391Y18529D1*
X20893Y17992D2*
X20391D1*
X20893Y18183D1*
X20391Y18374D1*
X20893D1*
X20487Y17838D2*
X20463Y17789D1*
X20391Y17718D1*
X20893D1*
X20391Y17420D2*
X20415Y17491D1*
X20487Y17539D1*
X20606Y17563D1*
X20678D1*
X20798Y17539D1*
X20869Y17491D1*
X20893Y17420D1*
Y17372D1*
X20869Y17300D1*
X20798Y17253D1*
X20678Y17228D1*
X20606D1*
X20487Y17253D1*
X20415Y17300D1*
X20391Y17372D1*
Y17420D1*
X20487Y17253D2*
X20798Y17539D1*
X20391Y16930D2*
X20415Y17002D1*
X20487Y17050D1*
X20606Y17074D1*
X20678D1*
X20798Y17050D1*
X20869Y17002D1*
X20893Y16930D1*
Y16883D1*
X20869Y16811D1*
X20798Y16763D1*
X20678Y16739D1*
X20606D1*
X20487Y16763D1*
X20415Y16811D1*
X20391Y16883D1*
Y16930D1*
X20487Y16763D2*
X20798Y17050D1*
X20391Y16441D2*
X20415Y16513D1*
X20487Y16561D1*
X20606Y16585D1*
X20678D1*
X20798Y16561D1*
X20869Y16513D1*
X20893Y16441D1*
Y16393D1*
X20869Y16322D1*
X20798Y16274D1*
X20678Y16250D1*
X20606D1*
X20487Y16274D1*
X20415Y16322D1*
X20391Y16393D1*
Y16441D1*
X20487Y16274D2*
X20798Y16561D1*
X20391Y15442D2*
X20893D1*
X20391Y15609D2*
Y15274D1*
X20558Y14833D2*
X20893D1*
X20630D2*
X20582Y14881D1*
X20558Y14929D1*
Y15000D1*
X20582Y15048D1*
X20630Y15096D1*
X20702Y15120D1*
X20749D1*
X20821Y15096D1*
X20869Y15048D1*
X20893Y15000D1*
Y14929D1*
X20869Y14881D1*
X20821Y14833D1*
X20582Y14392D2*
X20965D1*
X21036Y14416D1*
X21061Y14439D1*
X21084Y14487D1*
Y14559D1*
X21061Y14607D1*
X20654Y14392D2*
X20606Y14439D1*
X20582Y14487D1*
Y14559D1*
X20606Y14607D1*
X20654Y14655D1*
X20726Y14679D1*
X20774D1*
X20845Y14655D1*
X20893Y14607D1*
X20917Y14559D1*
Y14487D1*
X20893Y14439D1*
X20845Y14392D1*
X21430Y19468D2*
Y19253D1*
X21406Y19182D1*
X21382Y19157D1*
X21334Y19133D1*
X21286D1*
X21239Y19157D1*
X21214Y19182D1*
X21191Y19253D1*
Y19468D1*
X21693D1*
X21430Y19301D2*
X21693Y19133D1*
X21502Y18979D2*
Y18692D1*
X21454D1*
X21406Y18716D1*
X21382Y18740D1*
X21358Y18788D1*
Y18860D1*
X21382Y18907D1*
X21430Y18955D1*
X21502Y18979D1*
X21549D1*
X21621Y18955D1*
X21669Y18907D1*
X21693Y18860D1*
Y18788D1*
X21669Y18740D1*
X21621Y18692D1*
X21358Y18538D2*
X21693Y18394D1*
X21358Y18251D1*
X21310Y17252D2*
X21263Y17276D1*
X21214Y17324D1*
X21191Y17371D1*
Y17467D1*
X21214Y17515D1*
X21263Y17562D1*
X21310Y17587D1*
X21382Y17611D1*
X21502D1*
X21573Y17587D1*
X21621Y17562D1*
X21669Y17515D1*
X21693Y17467D1*
Y17371D1*
X21669Y17324D1*
X21621Y17276D1*
X21573Y17252D1*
X21891Y19471D2*
X22393D1*
Y19303D1*
X22369Y19231D1*
X22321Y19183D1*
X22273Y19159D1*
X22202Y19136D1*
X22082D1*
X22010Y19159D1*
X21963Y19183D1*
X21914Y19231D1*
X21891Y19303D1*
Y19471D1*
X22202Y18981D2*
Y18694D1*
X22154D1*
X22106Y18718D1*
X22082Y18742D1*
X22058Y18790D1*
Y18862D1*
X22082Y18909D1*
X22130Y18957D1*
X22202Y18981D1*
X22249D1*
X22321Y18957D1*
X22369Y18909D1*
X22393Y18862D1*
Y18790D1*
X22369Y18742D1*
X22321Y18694D1*
X22130Y18277D2*
X22082Y18301D1*
X22058Y18373D1*
Y18444D1*
X22082Y18516D1*
X22130Y18540D1*
X22178Y18516D1*
X22202Y18468D1*
X22226Y18349D1*
X22249Y18301D1*
X22298Y18277D1*
X22321D1*
X22369Y18301D1*
X22393Y18373D1*
Y18444D1*
X22369Y18516D1*
X22321Y18540D1*
X21891Y18123D2*
X21914Y18099D1*
X21891Y18074D1*
X21866Y18099D1*
X21891Y18123D1*
X22058Y18099D2*
X22393D1*
X22082Y17633D2*
X22465D1*
X22536Y17657D1*
X22561Y17681D1*
X22584Y17729D1*
Y17801D1*
X22561Y17848D1*
X22154Y17633D2*
X22106Y17681D1*
X22082Y17729D1*
Y17801D1*
X22106Y17848D1*
X22154Y17896D1*
X22226Y17920D1*
X22274D1*
X22345Y17896D1*
X22393Y17848D1*
X22417Y17801D1*
Y17729D1*
X22393Y17681D1*
X22345Y17633D1*
X22058Y17479D2*
X22393D1*
X22154D2*
X22082Y17407D1*
X22058Y17359D1*
Y17288D1*
X22082Y17239D1*
X22154Y17216D1*
X22393D1*
X22202Y17061D2*
Y16774D1*
X22154D1*
X22106Y16798D1*
X22082Y16822D1*
X22058Y16870D1*
Y16942D1*
X22082Y16989D1*
X22130Y17038D1*
X22202Y17061D1*
X22249D1*
X22321Y17038D1*
X22369Y16989D1*
X22393Y16942D1*
Y16870D1*
X22369Y16822D1*
X22321Y16774D1*
X21891Y16333D2*
X22393D1*
X22130D2*
X22082Y16381D1*
X22058Y16429D1*
Y16501D1*
X22082Y16548D1*
X22130Y16596D1*
X22202Y16620D1*
X22249D1*
X22321Y16596D1*
X22369Y16548D1*
X22393Y16501D1*
Y16429D1*
X22369Y16381D1*
X22321Y16333D1*
X21891Y15693D2*
X22393D1*
X22130D2*
X22082Y15645D1*
X22058Y15597D1*
Y15525D1*
X22082Y15478D1*
X22130Y15430D1*
X22202Y15406D1*
X22249D1*
X22321Y15430D1*
X22369Y15478D1*
X22393Y15525D1*
Y15597D1*
X22369Y15645D1*
X22321Y15693D1*
X22058Y15227D2*
X22393Y15084D1*
X22489Y15132D1*
X22537Y15180D1*
X22561Y15227D1*
Y15252D1*
X22058Y14940D2*
X22393Y15084D1*
Y13918D2*
X21891D1*
X22393Y14109D1*
X21891Y14300D1*
X22393D1*
X22058Y13476D2*
X22393D1*
X22130D2*
X22082Y13524D1*
X22058Y13572D1*
Y13643D1*
X22082Y13691D1*
X22130Y13739D1*
X22202Y13763D1*
X22249D1*
X22321Y13739D1*
X22369Y13691D1*
X22393Y13643D1*
Y13572D1*
X22369Y13524D1*
X22321Y13476D1*
X21891Y13250D2*
X22298D1*
X22369Y13226D1*
X22393Y13178D1*
Y13131D1*
X22058Y13322D2*
Y13154D1*
X21891Y12976D2*
X22393D1*
X22154D2*
X22082Y12904D1*
X22058Y12856D1*
Y12784D1*
X22082Y12737D1*
X22154Y12713D1*
X22393D1*
X21891Y12559D2*
X21914Y12535D1*
X21891Y12511D1*
X21866Y12535D1*
X21891Y12559D1*
X22058Y12535D2*
X22393D1*
X22058Y12069D2*
X22393D1*
X22130D2*
X22082Y12117D1*
X22058Y12165D1*
Y12236D1*
X22082Y12284D1*
X22130Y12332D1*
X22202Y12356D1*
X22249D1*
X22321Y12332D1*
X22369Y12284D1*
X22393Y12236D1*
Y12165D1*
X22369Y12117D1*
X22321Y12069D1*
X22130Y11652D2*
X22082Y11676D1*
X22058Y11748D1*
Y11819D1*
X22082Y11891D1*
X22130Y11915D1*
X22178Y11891D1*
X22202Y11843D1*
X22226Y11724D1*
X22249Y11676D1*
X22298Y11652D1*
X22321D1*
X22369Y11676D1*
X22393Y11748D1*
Y11819D1*
X22369Y11891D1*
X22321Y11915D1*
X21891Y11012D2*
X22393D1*
X21891Y10677D2*
X22226Y11012D1*
X22106Y10892D2*
X22393Y10677D1*
X22058Y10403D2*
X22082Y10450D1*
X22130Y10499D1*
X22202Y10522D1*
X22249D1*
X22321Y10499D1*
X22369Y10450D1*
X22393Y10403D1*
Y10331D1*
X22369Y10283D1*
X22321Y10235D1*
X22249Y10211D1*
X22202D1*
X22130Y10235D1*
X22082Y10283D1*
X22058Y10331D1*
Y10403D1*
X22130Y9769D2*
X22082Y9817D1*
X22058Y9865D1*
Y9937D1*
X22082Y9985D1*
X22130Y10032D1*
X22202Y10057D1*
X22249D1*
X22321Y10032D1*
X22369Y9985D1*
X22393Y9937D1*
Y9865D1*
X22369Y9817D1*
X22321Y9769D1*
X21891Y9615D2*
X22393D1*
X22154D2*
X22082Y9543D1*
X22058Y9495D1*
Y9423D1*
X22082Y9376D1*
X22154Y9352D1*
X22393D1*
X9816Y6932D2*
D106*
Y6775D1*
X9931Y6861D1*
Y6818D1*
X9945Y6789D1*
X9959Y6775D1*
X10002Y6760D1*
X10031D1*
X10074Y6775D1*
X10103Y6803D1*
X10117Y6847D1*
Y6890D1*
X10103Y6932D1*
X10088Y6947D1*
X10060Y6961D1*
X10088Y6653D2*
X10103Y6668D1*
X10117Y6653D1*
X10103Y6639D1*
X10088Y6653D1*
X9816Y6517D2*
Y6360D1*
X9931Y6446D1*
Y6403D1*
X9945Y6374D1*
X9959Y6360D1*
X10002Y6345D1*
X10031D1*
X10074Y6360D1*
X10103Y6388D1*
X10117Y6431D1*
Y6475D1*
X10103Y6517D1*
X10088Y6532D1*
X10060Y6546D1*
X9816Y6253D2*
X10117Y6138D1*
X9816Y6023D1*
X10816Y6932D2*
Y6775D1*
X10931Y6861D1*
Y6818D1*
X10945Y6789D1*
X10959Y6775D1*
X11002Y6760D1*
X11031D1*
X11074Y6775D1*
X11103Y6803D1*
X11117Y6847D1*
Y6890D1*
X11103Y6932D1*
X11088Y6947D1*
X11060Y6961D1*
X11088Y6653D2*
X11103Y6668D1*
X11117Y6653D1*
X11103Y6639D1*
X11088Y6653D1*
X10816Y6517D2*
Y6360D1*
X10931Y6446D1*
Y6403D1*
X10945Y6374D1*
X10959Y6360D1*
X11002Y6345D1*
X11031D1*
X11074Y6360D1*
X11103Y6388D1*
X11117Y6431D1*
Y6475D1*
X11103Y6517D1*
X11088Y6532D1*
X11060Y6546D1*
X10816Y6253D2*
X11117Y6138D1*
X10816Y6023D1*
X11816Y6789D2*
Y6932D1*
X11945Y6947D1*
X11931Y6932D1*
X11916Y6889D1*
Y6847D1*
X11931Y6803D1*
X11959Y6775D1*
X12002Y6760D1*
X12031D1*
X12074Y6775D1*
X12103Y6803D1*
X12117Y6847D1*
Y6889D1*
X12103Y6932D1*
X12088Y6947D1*
X12060Y6961D1*
X12088Y6653D2*
X12103Y6668D1*
X12117Y6653D1*
X12103Y6639D1*
X12088Y6653D1*
X11816Y6460D2*
X11830Y6503D1*
X11873Y6532D1*
X11945Y6546D1*
X11988D1*
X12060Y6532D1*
X12103Y6503D1*
X12117Y6460D1*
Y6431D1*
X12103Y6388D1*
X12060Y6360D1*
X11988Y6345D1*
X11945D1*
X11873Y6360D1*
X11830Y6388D1*
X11816Y6431D1*
Y6460D1*
X11873Y6360D2*
X12060Y6532D1*
X11816Y6253D2*
X12117Y6138D1*
X11816Y6023D1*
X12873Y7556D2*
X12859Y7528D1*
X12816Y7485D1*
X13117D1*
X12816Y7306D2*
X12830Y7349D1*
X12873Y7378D1*
X12945Y7392D1*
X12988D1*
X13060Y7378D1*
X13103Y7349D1*
X13117Y7306D1*
Y7277D1*
X13103Y7234D1*
X13060Y7205D1*
X12988Y7191D1*
X12945D1*
X12873Y7205D1*
X12830Y7234D1*
X12816Y7277D1*
Y7306D1*
X12873Y7205D2*
X13060Y7378D1*
X12967Y7098D2*
Y6932D1*
X12888Y6825D2*
X12873D1*
X12845Y6811D1*
X12830Y6797D1*
X12816Y6768D1*
Y6710D1*
X12830Y6682D1*
X12845Y6668D1*
X12873Y6653D1*
X12902D1*
X12931Y6668D1*
X12974Y6696D1*
X13117Y6840D1*
Y6639D1*
X12816Y6460D2*
X12830Y6503D1*
X12873Y6532D1*
X12945Y6546D1*
X12988D1*
X13060Y6532D1*
X13103Y6503D1*
X13117Y6460D1*
Y6431D1*
X13103Y6388D1*
X13060Y6360D1*
X12988Y6345D1*
X12945D1*
X12873Y6360D1*
X12830Y6388D1*
X12816Y6431D1*
Y6460D1*
X12873Y6360D2*
X13060Y6532D1*
X12816Y6253D2*
X13117Y6138D1*
X12816Y6023D1*
X13873Y7556D2*
X13859Y7528D1*
X13816Y7485D1*
X14117D1*
X13816Y7306D2*
X13830Y7349D1*
X13873Y7378D1*
X13945Y7392D1*
X13988D1*
X14060Y7378D1*
X14103Y7349D1*
X14117Y7306D1*
Y7277D1*
X14103Y7234D1*
X14060Y7205D1*
X13988Y7191D1*
X13945D1*
X13873Y7205D1*
X13830Y7234D1*
X13816Y7277D1*
Y7306D1*
X13873Y7205D2*
X14060Y7378D1*
X13967Y7098D2*
Y6932D1*
X13888Y6825D2*
X13873D1*
X13845Y6811D1*
X13830Y6797D1*
X13816Y6768D1*
Y6710D1*
X13830Y6682D1*
X13845Y6668D1*
X13873Y6653D1*
X13902D1*
X13931Y6668D1*
X13974Y6696D1*
X14117Y6840D1*
Y6639D1*
X13816Y6460D2*
X13830Y6503D1*
X13873Y6532D1*
X13945Y6546D1*
X13988D1*
X14060Y6532D1*
X14103Y6503D1*
X14117Y6460D1*
Y6431D1*
X14103Y6388D1*
X14060Y6360D1*
X13988Y6345D1*
X13945D1*
X13873Y6360D1*
X13830Y6388D1*
X13816Y6431D1*
Y6460D1*
X13873Y6360D2*
X14060Y6532D1*
X13816Y6253D2*
X14117Y6138D1*
X13816Y6023D1*
X14887Y6735D2*
X14859Y6750D1*
X14830Y6778D1*
X14816Y6807D1*
Y6864D1*
X14830Y6893D1*
X14859Y6922D1*
X14887Y6936D1*
X14930Y6951D1*
X15002D1*
X15045Y6936D1*
X15074Y6922D1*
X15102Y6893D1*
X15117Y6864D1*
Y6807D1*
X15102Y6778D1*
X15074Y6750D1*
X15045Y6735D1*
X15002D1*
Y6807D1*
X14816Y6442D2*
X15117D1*
X14816Y6643D1*
X15117D1*
X14816Y6349D2*
X15117D1*
Y6249D1*
X15102Y6206D1*
X15074Y6177D1*
X15045Y6162D1*
X15002Y6148D1*
X14930D1*
X14887Y6162D1*
X14859Y6177D1*
X14830Y6206D1*
X14816Y6249D1*
Y6349D1*
X15887Y6735D2*
X15859Y6750D1*
X15830Y6778D1*
X15816Y6807D1*
Y6864D1*
X15830Y6893D1*
X15859Y6922D1*
X15887Y6936D1*
X15930Y6951D1*
X16002D1*
X16045Y6936D1*
X16074Y6922D1*
X16102Y6893D1*
X16117Y6864D1*
Y6807D1*
X16102Y6778D1*
X16074Y6750D1*
X16045Y6735D1*
X16002D1*
Y6807D1*
X15816Y6442D2*
X16117D1*
X15816Y6643D1*
X16117D1*
X15816Y6349D2*
X16117D1*
Y6249D1*
X16102Y6206D1*
X16074Y6177D1*
X16045Y6162D1*
X16002Y6148D1*
X15930D1*
X15887Y6162D1*
X15859Y6177D1*
X15830Y6206D1*
X15816Y6249D1*
Y6349D1*
Y18333D2*
X16117D1*
Y18232D1*
X16102Y18189D1*
X16074Y18160D1*
X16045Y18146D1*
X16002Y18132D1*
X15930D1*
X15887Y18146D1*
X15859Y18160D1*
X15830Y18189D1*
X15816Y18232D1*
Y18333D1*
X16117Y17809D2*
X15816Y17924D1*
X16117Y18039D1*
X16017Y17996D2*
Y17852D1*
X15816Y17616D2*
X16117D1*
X15816Y17717D2*
Y17516D1*
X16117Y17193D2*
X15816Y17308D1*
X16117Y17423D1*
X16017Y17380D2*
Y17236D1*
X16167Y17101D2*
Y16828D1*
X15816Y16735D2*
X16117D1*
X15816Y16442D2*
X16117D1*
X15816Y16643D1*
X16117D1*
X15816Y16249D2*
X16117D1*
X15816Y16349D2*
Y16148D1*
X14859Y18055D2*
X14830Y18084D1*
X14816Y18127D1*
Y18184D1*
X14830Y18227D1*
X14859Y18256D1*
X14887D1*
X14916Y18241D1*
X14930Y18227D1*
X14945Y18199D1*
X14973Y18112D1*
X14988Y18084D1*
X15002Y18069D1*
X15031Y18055D1*
X15074D1*
X15102Y18084D1*
X15117Y18127D1*
Y18184D1*
X15102Y18227D1*
X15074Y18256D1*
X14973Y17962D2*
Y17833D1*
X14959Y17790D1*
X14945Y17776D1*
X14916Y17761D1*
X14873D1*
X14845Y17776D1*
X14830Y17790D1*
X14816Y17833D1*
Y17962D1*
X15117D1*
X14816Y17669D2*
X15117D1*
X15167Y17576D2*
Y17304D1*
X15117Y16982D2*
X14816D1*
X15117Y17096D1*
X14816Y17211D1*
X15117D1*
X14816Y16889D2*
X15117D1*
X14859Y16595D2*
X14830Y16624D1*
X14816Y16667D1*
Y16724D1*
X14830Y16767D1*
X14859Y16796D1*
X14887D1*
X14916Y16782D1*
X14930Y16767D1*
X14945Y16739D1*
X14974Y16653D1*
X14988Y16624D1*
X15002Y16610D1*
X15031Y16595D1*
X15074D1*
X15102Y16624D1*
X15117Y16667D1*
Y16724D1*
X15102Y16767D1*
X15074Y16796D1*
X14816Y16416D2*
X14830Y16445D1*
X14859Y16474D1*
X14887Y16488D1*
X14930Y16503D1*
X15002D1*
X15045Y16488D1*
X15074Y16474D1*
X15102Y16445D1*
X15117Y16416D1*
Y16359D1*
X15102Y16331D1*
X15074Y16302D1*
X15045Y16287D1*
X15002Y16273D1*
X14930D1*
X14887Y16287D1*
X14859Y16302D1*
X14830Y16331D1*
X14816Y16359D1*
Y16416D1*
X13859Y18055D2*
X13830Y18084D1*
X13816Y18127D1*
Y18184D1*
X13830Y18227D1*
X13859Y18256D1*
X13887D1*
X13916Y18241D1*
X13930Y18227D1*
X13945Y18199D1*
X13973Y18112D1*
X13988Y18084D1*
X14002Y18069D1*
X14031Y18055D1*
X14074D1*
X14102Y18084D1*
X14117Y18127D1*
Y18184D1*
X14102Y18227D1*
X14074Y18256D1*
X13973Y17962D2*
Y17833D1*
X13959Y17790D1*
X13945Y17776D1*
X13916Y17761D1*
X13873D1*
X13845Y17776D1*
X13830Y17790D1*
X13816Y17833D1*
Y17962D1*
X14117D1*
X13816Y17669D2*
X14117D1*
X14167Y17576D2*
Y17304D1*
X14117Y16982D2*
X13816D1*
X14117Y17096D1*
X13816Y17211D1*
X14117D1*
X13816Y16803D2*
X13830Y16831D1*
X13859Y16860D1*
X13887Y16875D1*
X13930Y16889D1*
X14002D1*
X14045Y16875D1*
X14074Y16860D1*
X14102Y16831D1*
X14117Y16803D1*
Y16745D1*
X14102Y16717D1*
X14074Y16688D1*
X14045Y16674D1*
X14002Y16659D1*
X13930D1*
X13887Y16674D1*
X13859Y16688D1*
X13830Y16717D1*
X13816Y16745D1*
Y16803D1*
X13859Y16366D2*
X13830Y16394D1*
X13816Y16437D1*
Y16495D1*
X13830Y16538D1*
X13859Y16567D1*
X13887D1*
X13916Y16552D1*
X13930Y16538D1*
X13945Y16509D1*
X13974Y16423D1*
X13988Y16394D1*
X14002Y16380D1*
X14031Y16366D1*
X14074D1*
X14102Y16394D1*
X14117Y16437D1*
Y16495D1*
X14102Y16538D1*
X14074Y16567D1*
X13816Y16273D2*
X14117D1*
X12859Y18141D2*
X12830Y18169D1*
X12816Y18212D1*
Y18270D1*
X12830Y18313D1*
X12859Y18342D1*
X12887D1*
X12916Y18327D1*
X12930Y18313D1*
X12945Y18284D1*
X12973Y18198D1*
X12988Y18169D1*
X13002Y18155D1*
X13031Y18141D1*
X13074D1*
X13102Y18169D1*
X13117Y18212D1*
Y18270D1*
X13102Y18313D1*
X13074Y18342D1*
X12973Y18048D2*
Y17919D1*
X12959Y17876D1*
X12945Y17861D1*
X12916Y17847D1*
X12873D1*
X12845Y17861D1*
X12830Y17876D1*
X12816Y17919D1*
Y18048D1*
X13117D1*
X12816Y17755D2*
X13117D1*
X13167Y17662D2*
Y17389D1*
X12887Y17081D2*
X12859Y17096D1*
X12830Y17125D1*
X12816Y17153D1*
Y17210D1*
X12830Y17239D1*
X12859Y17268D1*
X12887Y17282D1*
X12930Y17297D1*
X13002D1*
X13045Y17282D1*
X13074Y17268D1*
X13102Y17239D1*
X13117Y17210D1*
Y17153D1*
X13102Y17125D1*
X13074Y17096D1*
X13045Y17081D1*
X12816Y16989D2*
X13117D1*
Y16817D1*
X12816Y16724D2*
X13117D1*
X12816Y16523D2*
X13017Y16724D1*
X12945Y16652D2*
X13117Y16523D1*
X11859Y18126D2*
X11830Y18155D1*
X11816Y18198D1*
Y18255D1*
X11830Y18298D1*
X11859Y18327D1*
X11887D1*
X11916Y18312D1*
X11930Y18298D1*
X11945Y18270D1*
X11973Y18183D1*
X11988Y18155D1*
X12002Y18140D1*
X12031Y18126D1*
X12074D1*
X12102Y18155D1*
X12117Y18198D1*
Y18255D1*
X12102Y18298D1*
X12074Y18327D1*
X11973Y18033D2*
Y17904D1*
X11959Y17861D1*
X11945Y17847D1*
X11916Y17832D1*
X11873D1*
X11845Y17847D1*
X11830Y17861D1*
X11816Y17904D1*
Y18033D1*
X12117D1*
X11816Y17740D2*
X12117D1*
X12167Y17647D2*
Y17375D1*
X11887Y17067D2*
X11859Y17081D1*
X11830Y17110D1*
X11816Y17138D1*
Y17196D1*
X11830Y17225D1*
X11859Y17253D1*
X11887Y17268D1*
X11930Y17282D1*
X12002D1*
X12045Y17268D1*
X12074Y17253D1*
X12102Y17225D1*
X12117Y17196D1*
Y17138D1*
X12102Y17110D1*
X12074Y17081D1*
X12045Y17067D1*
X11859Y16773D2*
X11830Y16802D1*
X11816Y16845D1*
Y16902D1*
X11830Y16945D1*
X11859Y16974D1*
X11887D1*
X11916Y16960D1*
X11930Y16945D1*
X11945Y16917D1*
X11973Y16831D1*
X11988Y16802D1*
X12002Y16787D1*
X12031Y16773D1*
X12074D1*
X12102Y16802D1*
X12117Y16845D1*
Y16902D1*
X12102Y16945D1*
X12074Y16974D1*
X10691Y18356D2*
X10992D1*
X10763Y18249D2*
X10748D1*
X10720Y18235D1*
X10705Y18220D1*
X10691Y18191D1*
Y18134D1*
X10705Y18106D1*
X10720Y18091D1*
X10748Y18077D1*
X10777D1*
X10806Y18091D1*
X10848Y18120D1*
X10992Y18263D1*
Y18062D1*
X10762Y17755D2*
X10734Y17769D1*
X10705Y17798D1*
X10691Y17826D1*
Y17884D1*
X10705Y17912D1*
X10734Y17941D1*
X10762Y17956D1*
X10805Y17970D1*
X10877D1*
X10920Y17956D1*
X10949Y17941D1*
X10977Y17912D1*
X10992Y17884D1*
Y17826D1*
X10977Y17798D1*
X10949Y17769D1*
X10920Y17755D1*
X11042Y17662D2*
Y17389D1*
X10734Y17096D2*
X10705Y17124D1*
X10691Y17167D1*
Y17225D1*
X10705Y17268D1*
X10734Y17297D1*
X10762D1*
X10791Y17282D1*
X10805Y17268D1*
X10820Y17239D1*
X10849Y17153D1*
X10863Y17124D1*
X10877Y17110D1*
X10906Y17096D1*
X10949D1*
X10977Y17124D1*
X10992Y17167D1*
Y17225D1*
X10977Y17268D1*
X10949Y17297D1*
X10762Y16788D2*
X10734Y16802D1*
X10705Y16831D1*
X10691Y16860D1*
Y16917D1*
X10705Y16946D1*
X10734Y16974D1*
X10762Y16989D1*
X10805Y17003D1*
X10877D1*
X10920Y16989D1*
X10949Y16974D1*
X10977Y16946D1*
X10992Y16917D1*
Y16860D1*
X10977Y16831D1*
X10949Y16802D1*
X10920Y16788D1*
X10691Y16695D2*
X10992D1*
Y16523D1*
X9816Y18399D2*
X10117D1*
X9888Y18292D2*
X9873D1*
X9845Y18278D1*
X9830Y18264D1*
X9816Y18235D1*
Y18178D1*
X9830Y18149D1*
X9845Y18135D1*
X9873Y18120D1*
X9902D1*
X9931Y18135D1*
X9973Y18163D1*
X10117Y18307D1*
Y18106D1*
X9887Y17798D2*
X9859Y17812D1*
X9830Y17841D1*
X9816Y17870D1*
Y17927D1*
X9830Y17956D1*
X9859Y17984D1*
X9887Y17999D1*
X9930Y18013D1*
X10002D1*
X10045Y17999D1*
X10074Y17984D1*
X10102Y17956D1*
X10117Y17927D1*
Y17870D1*
X10102Y17841D1*
X10074Y17812D1*
X10045Y17798D1*
X10167Y17705D2*
Y17433D1*
X9859Y17139D2*
X9830Y17168D1*
X9816Y17211D1*
Y17268D1*
X9830Y17311D1*
X9859Y17340D1*
X9887D1*
X9916Y17326D1*
X9930Y17311D1*
X9945Y17283D1*
X9974Y17197D1*
X9988Y17168D1*
X10002Y17153D1*
X10031Y17139D1*
X10074D1*
X10102Y17168D1*
X10117Y17211D1*
Y17268D1*
X10102Y17311D1*
X10074Y17340D1*
X9816Y17047D2*
X10117D1*
Y16946D1*
X10102Y16903D1*
X10074Y16874D1*
X10045Y16860D1*
X10002Y16846D1*
X9930D1*
X9887Y16860D1*
X9859Y16874D1*
X9830Y16903D1*
X9816Y16946D1*
Y17047D1*
X10117Y16523D2*
X9816Y16638D1*
X10117Y16753D1*
X10017Y16710D2*
Y16566D1*
X8816Y18461D2*
X9031D1*
X9074Y18447D1*
X9102Y18418D1*
X9117Y18375D1*
Y18346D1*
X9102Y18303D1*
X9074Y18274D1*
X9031Y18260D1*
X8816D1*
X9117Y17938D2*
X8816Y18053D1*
X9117Y18168D1*
X9017Y18124D2*
Y17981D1*
X8959Y17845D2*
Y17716D1*
X8945Y17673D1*
X8930Y17658D1*
X8902Y17644D1*
X8873D1*
X8845Y17658D1*
X8830Y17673D1*
X8816Y17716D1*
Y17845D1*
X9117D1*
X8959Y17745D2*
X9117Y17644D1*
X8816Y17451D2*
X9117D1*
X8816Y17552D2*
Y17351D1*
X9167Y17258D2*
Y16985D1*
X8959Y16893D2*
Y16764D1*
X8945Y16721D1*
X8930Y16706D1*
X8902Y16692D1*
X8873D1*
X8845Y16706D1*
X8830Y16721D1*
X8816Y16764D1*
Y16893D1*
X9117D1*
X8959Y16792D2*
X9117Y16692D1*
X8816Y16599D2*
X9117Y16398D1*
X8816D2*
X9117Y16599D1*
X7691Y18461D2*
X7906D1*
X7949Y18447D1*
X7977Y18418D1*
X7992Y18375D1*
Y18346D1*
X7977Y18303D1*
X7949Y18274D1*
X7906Y18260D1*
X7691D1*
X7992Y17938D2*
X7691Y18053D1*
X7992Y18168D1*
X7892Y18124D2*
Y17981D1*
X7834Y17845D2*
Y17716D1*
X7820Y17673D1*
X7805Y17658D1*
X7777Y17644D1*
X7748D1*
X7720Y17658D1*
X7705Y17673D1*
X7691Y17716D1*
Y17845D1*
X7992D1*
X7834Y17745D2*
X7992Y17644D1*
X7691Y17451D2*
X7992D1*
X7691Y17552D2*
Y17351D1*
X8042Y17258D2*
Y16985D1*
X7691Y16792D2*
X7992D1*
X7691Y16893D2*
Y16692D1*
Y16599D2*
X7992Y16398D1*
X7691D2*
X7992Y16599D1*
X6762Y18235D2*
X6734Y18250D1*
X6705Y18278D1*
X6691Y18307D1*
Y18364D1*
X6705Y18393D1*
X6734Y18422D1*
X6762Y18436D1*
X6805Y18451D1*
X6877D1*
X6920Y18436D1*
X6949Y18422D1*
X6977Y18393D1*
X6992Y18364D1*
Y18307D1*
X6977Y18278D1*
X6949Y18250D1*
X6920Y18235D1*
X6877D1*
Y18307D1*
X6691Y17942D2*
X6992D1*
X6691Y18143D1*
X6992D1*
X6691Y17849D2*
X6992D1*
Y17749D1*
X6977Y17706D1*
X6949Y17677D1*
X6920Y17662D1*
X6877Y17648D1*
X6805D1*
X6762Y17662D1*
X6734Y17677D1*
X6705Y17706D1*
X6691Y17749D1*
Y17849D1*
M02*
