M48
INCH
T01C0.012
T02C0.0433
%
T01
X+011600Y+009340
X+011340Y+009160
X+011740Y+008720
X+011760Y+008120
X+012620Y+008060
X+012900Y+008220
X+012980Y+009520
X+012780Y+010840
X+012540Y+011040
X+012280Y+011440
X+011400Y+011100
X+011140Y+011380
X+010820Y+011140
X+010540Y+011240
X+009960Y+011160
X+010140Y+010220
X+010600Y+010240
X+011206Y+010294
X+010120Y+009500
X+009300Y+009320
X+009300Y+008700
X+009400Y+008140
X+010040Y+007900
X+009000Y+007080
X+009640Y+006100
X+010260Y+006220
X+011660Y+006920
X+013840Y+006700
X+015500Y+008760
X+016660Y+009300
X+017060Y+009740
X+016700Y+010060
X+016140Y+010240
X+015980Y+010460
X+014540Y+010020
X+014640Y+011700
X+013800Y+012920
X+013560Y+013480
X+014120Y+014380
X+014420Y+014360
X+015900Y+014260
X+015820Y+013800
X+015900Y+013200
X+018500Y+012360
X+018880Y+010060
X+019120Y+009260
X+018420Y+009240
X+017920Y+009200
X+018080Y+015220
X+017760Y+015260
X+017420Y+015540
X+017740Y+015940
X+015280Y+017700
X+014980Y+017920
X+012980Y+017780
X+011440Y+018040
X+011220Y+016860
X+011400Y+016600
X+010800Y+015980
X+010120Y+015660
X+010060Y+014880
X+009660Y+014880
X+010000Y+014400
X+010511Y+013080
X+011720Y+013460
X+011760Y+015020
X+008560Y+015400
X+008480Y+014240
X+008080Y+013760
X+007720Y+013260
X+007420Y+013480
X+007300Y+013780
X+005980Y+012440
X+005440Y+012020
X+007140Y+011580
X+006815Y+010695
X+007140Y+010500
X+007840Y+010600
X+008780Y+010820
X+009080Y+010660
X+008200Y+008680
X+007360Y+008540
X+006540Y+008120
X+007320Y+006660
X+007280Y+006140
X+008240Y+005620
X+008560Y+005880
X+006503Y+016315
X+006002Y+016440
X+006503Y+016878
X+007690Y+017690
X+008359Y+016781
X+005127Y+017815
T02
X+006940Y+018940
X+007940Y+018940
X+008940Y+018940
X+009940Y+018940
X+010940Y+018940
X+011940Y+018940
X+012940Y+018940
X+013940Y+018940
X+014940Y+018940
X+015940Y+018940
X+015940Y+004940
X+014940Y+004940
X+013940Y+004940
X+012940Y+004940
X+011940Y+004940
X+010940Y+004940
X+009940Y+004940
X+008940Y+004940
X+007940Y+004940
X+006940Y+004940
T00
M30
