G04 DipTrace 2.4.0.2*
%INTopMask.gbr*%
%MOIN*%
%ADD22R,0.0315X0.0315*%
%ADD53R,0.0533X0.0631*%
%ADD55R,0.0686X0.0749*%
%ADD57O,0.03X0.0159*%
%ADD59O,0.0159X0.03*%
%ADD61R,0.0749X0.1379*%
%ADD63R,0.0316X0.0171*%
%ADD65R,0.0237X0.0434*%
%ADD67R,0.0198X0.0552*%
%ADD69R,0.0552X0.0198*%
%ADD71R,0.1045X0.0474*%
%ADD73R,0.0474X0.1045*%
%ADD75R,0.0434X0.0474*%
%ADD77R,0.0336X0.0493*%
%ADD79R,0.047X0.114*%
%ADD81C,0.0749*%
%ADD83R,0.0749X0.0749*%
%ADD85R,0.0828X0.0552*%
%ADD87R,0.0828X0.071*%
%ADD89R,0.0867X0.0907*%
%ADD91R,0.0611X0.0237*%
%ADD94R,0.091X0.058*%
%ADD97R,0.0474X0.0513*%
%ADD99R,0.0513X0.0474*%
%ADD101R,0.1143X0.071*%
%ADD103R,0.0671X0.0592*%
%FSLAX44Y44*%
G04*
G70*
G90*
G75*
G01*
%LNTopMask*%
%LPD*%
D103*
X12440Y13192D3*
Y13940D3*
D101*
X13690Y11190D3*
Y12292D3*
D99*
X8753Y18128D3*
X8083D3*
D97*
X8980Y17025D3*
Y16355D3*
D99*
X14098Y7278D3*
X13428D3*
Y9653D3*
X14098D3*
X11877Y17565D3*
X12547D3*
D97*
X6690Y12378D3*
Y13047D3*
X8190Y7440D3*
Y8109D3*
D99*
X8065Y15565D3*
X7396D3*
D97*
X4690Y8127D3*
Y8797D3*
X19315Y10484D3*
Y9815D3*
X4815Y17440D3*
Y16771D3*
X12253Y7253D3*
Y6583D3*
X12752Y7253D3*
Y6583D3*
D99*
X16753Y18065D3*
X16083D3*
X11877D3*
X12547D3*
X11877Y17065D3*
X12547D3*
X16734Y17565D3*
X16065D3*
X11877Y16565D3*
X12547D3*
X11877Y16065D3*
X12547D3*
X9002Y12378D3*
X9672D3*
D97*
X19815Y9815D3*
Y10484D3*
D22*
Y7065D3*
Y7656D3*
X19190Y7065D3*
Y7656D3*
X18565Y7065D3*
Y7656D3*
X17940Y7065D3*
Y7656D3*
X17315Y7065D3*
Y7656D3*
X16690Y7065D3*
Y7656D3*
X16065Y7065D3*
Y7656D3*
D94*
X11378Y15440D3*
Y13900D3*
D22*
X14940Y8690D3*
Y7824D3*
Y9190D3*
Y10056D3*
D91*
X5940Y13815D3*
Y14071D3*
Y14327D3*
Y14583D3*
Y14839D3*
D89*
X5812Y13106D3*
Y15547D3*
D87*
X4887Y12713D3*
Y15941D3*
D85*
Y13992D3*
Y14661D3*
D83*
X6940Y18940D3*
D81*
X7940D3*
X8940D3*
X9940D3*
X10940D3*
X11940D3*
X12940D3*
X13940D3*
X14940D3*
X15940D3*
D83*
X6940Y4940D3*
D81*
X7940D3*
X8940D3*
X9940D3*
X10940D3*
X11940D3*
X12940D3*
X13940D3*
X14940D3*
X15940D3*
D79*
X9815Y17315D3*
X10670D3*
D77*
X11940Y11440D3*
X12688D3*
X12314Y12346D3*
D97*
X10502Y14315D3*
Y13646D3*
D99*
X10605Y11775D3*
X11275D3*
X5355Y16775D3*
X6025D3*
X8065Y17627D3*
X8734D3*
X9690Y15815D3*
X9021D3*
X6065Y17440D3*
X5396D3*
X7940Y14128D3*
X7271D3*
X10855Y6525D3*
X11525D3*
X7962Y14650D3*
X7293D3*
D97*
X19815Y8815D3*
Y8146D3*
X19190Y8815D3*
Y8146D3*
X18565Y8815D3*
Y8146D3*
X17940Y8815D3*
Y8146D3*
X17315Y8815D3*
Y8146D3*
X16690Y8815D3*
Y8146D3*
X16065Y8815D3*
Y8146D3*
X10503Y15065D3*
Y15734D3*
D99*
X10315Y6565D3*
X9646D3*
X6815Y11002D3*
X7484D3*
D75*
X5690Y9940D3*
X7304D3*
Y9080D3*
X5690D3*
Y7940D3*
X7304D3*
Y7080D3*
X5690D3*
D73*
X19940Y16690D3*
X19389D3*
X18838D3*
X18286D3*
X17735D3*
X17184D3*
X16633D3*
X16082D3*
D71*
X15139Y16060D3*
Y15509D3*
Y14958D3*
Y14407D3*
Y13855D3*
Y13304D3*
Y12753D3*
Y12202D3*
D73*
X16082Y11572D3*
X16633D3*
X17184D3*
X17735D3*
X18286D3*
X18838D3*
X19389D3*
X19940D3*
D69*
X12190Y7940D3*
Y8137D3*
Y8334D3*
Y8531D3*
Y8727D3*
Y8924D3*
Y9121D3*
Y9318D3*
Y9515D3*
Y9712D3*
Y9909D3*
Y10105D3*
D67*
X11599Y10696D3*
X11403D3*
X11206D3*
X11009D3*
X10812D3*
X10615D3*
X10418D3*
X10221D3*
X10025D3*
X9828D3*
X9631D3*
X9434D3*
D69*
X8844Y10105D3*
Y9909D3*
Y9712D3*
Y9515D3*
Y9318D3*
Y9121D3*
Y8924D3*
Y8727D3*
Y8531D3*
Y8334D3*
Y8137D3*
Y7940D3*
D67*
X9434Y7349D3*
X9631D3*
X9828D3*
X10025D3*
X10221D3*
X10418D3*
X10615D3*
X10812D3*
X11009D3*
X11206D3*
X11403D3*
X11599D3*
D65*
X10940Y12378D3*
X11196D3*
X11452D3*
Y13244D3*
X11196D3*
X10940D3*
D63*
X7940Y16190D3*
Y16387D3*
Y16584D3*
Y16781D3*
Y16977D3*
Y17174D3*
X6838D3*
Y16977D3*
Y16781D3*
Y16584D3*
Y16387D3*
Y16190D3*
D61*
X7389Y16682D3*
D59*
X7440Y11690D3*
X7597D3*
X7755D3*
X7912D3*
X8070D3*
X8227D3*
D57*
X8424Y11887D3*
Y12044D3*
Y12202D3*
Y12359D3*
Y12517D3*
Y12674D3*
D59*
X8227Y12871D3*
X8070D3*
X7912D3*
X7755D3*
X7597D3*
X7440D3*
D57*
X7243Y12674D3*
Y12517D3*
Y12359D3*
Y12202D3*
Y12044D3*
Y11887D3*
D55*
X7834Y12279D3*
D53*
X13440Y8940D3*
Y8074D3*
X14070D3*
Y8940D3*
M02*
