G04 DipTrace 2.4.0.2*
%INTop.gbr*%
%MOIN*%
%ADD13C,0.01*%
%ADD14C,0.0079*%
%ADD15C,0.0091*%
%ADD16C,0.025*%
%ADD17R,0.0591X0.0512*%
%ADD18R,0.1063X0.063*%
%ADD19R,0.0433X0.0394*%
%ADD20R,0.0394X0.0433*%
%ADD22R,0.0315X0.0315*%
%ADD23R,0.083X0.05*%
%ADD25R,0.0236X0.0236*%
%ADD27R,0.0531X0.0157*%
%ADD28R,0.0787X0.0827*%
%ADD29R,0.0748X0.063*%
%ADD30R,0.0748X0.0472*%
%ADD31R,0.0669X0.0669*%
%ADD32C,0.0669*%
%ADD33R,0.039X0.106*%
%ADD35R,0.0256X0.0413*%
%ADD36R,0.0354X0.0394*%
%ADD37R,0.0394X0.0965*%
%ADD38R,0.0965X0.0394*%
%ADD39R,0.0472X0.0118*%
%ADD40R,0.0118X0.0472*%
%ADD41R,0.0157X0.0354*%
%ADD42R,0.0236X0.0091*%
%ADD43R,0.0669X0.1299*%
%ADD45O,0.0079X0.022*%
%ADD46O,0.022X0.0079*%
%ADD47R,0.0606X0.0669*%
%ADD48R,0.0453X0.0551*%
%ADD49C,0.02*%
%FSLAX44Y44*%
G04*
G70*
G90*
G75*
G01*
%LNTop*%
%LPD*%
X19815Y8815D2*
D13*
Y9815D1*
X19315D1*
X8424Y12202D2*
D14*
Y12044D1*
X8584D1*
D13*
X8898D1*
X9440Y11502D1*
Y10702D1*
X9434Y10696D1*
X7484Y11002D2*
X7440D1*
Y11440D1*
X8690D1*
X9434Y10696D1*
X7440Y11690D2*
D14*
Y11530D1*
D13*
Y11047D1*
X7484Y11002D1*
X7243Y12202D2*
D14*
X7118D1*
D13*
X7080Y12240D1*
X6828D1*
X6690Y12378D1*
X7484Y11002D2*
Y11146D1*
X11877Y16065D2*
Y16565D1*
Y17065D1*
Y17565D1*
Y18065D1*
X10670Y17315D2*
Y16790D1*
X10860Y16600D1*
X11877D1*
Y17565D1*
X10670Y17315D2*
Y17590D1*
X10160Y18100D1*
X8780D1*
X8753Y18128D1*
Y17646D1*
X8734Y17627D1*
X4690Y8127D2*
X5140D1*
X5503D1*
X5690Y7940D1*
X6540D1*
X7304D1*
X7690D1*
X8190Y7440D1*
X8844Y7940D2*
X8690D1*
X8190Y7440D1*
X9646Y6565D2*
Y6420D1*
X5540D1*
X5140Y6820D1*
Y8127D1*
X9940Y4940D2*
Y6271D1*
X9646Y6565D1*
X10940Y4940D2*
X9940D1*
X12253Y7253D2*
X12752D1*
X12190Y7940D2*
Y7315D1*
X12253Y7253D1*
X11599Y7349D2*
X11863D1*
X12156D1*
X12253Y7253D1*
X12190Y9515D2*
Y9520D1*
X11780D1*
X11600Y9340D1*
X11660Y6920D2*
Y7146D1*
X11863Y7349D1*
X7484Y11002D2*
Y10844D1*
X7140Y10500D1*
X6540Y8120D2*
Y7940D1*
X8227Y12871D2*
D14*
Y13031D1*
D13*
Y13133D1*
X8100Y13260D1*
X7720D1*
X19315Y9815D2*
X19125D1*
X18880Y10060D1*
X17740Y15940D2*
Y16685D1*
X17735Y16690D1*
X17184D1*
X16633D1*
Y17464D1*
X16734Y17565D1*
Y18047D1*
X16753Y18065D1*
X11877D2*
X11465D1*
X11440Y18040D1*
X10503Y15734D2*
X10554D1*
X10800Y15980D1*
X11400Y16600D2*
X11843D1*
X11877Y16565D1*
X9660Y14880D2*
Y14892D1*
X10503Y15734D1*
X7140Y10500D2*
Y10480D1*
X6500D1*
X6340Y10640D1*
Y11590D1*
X6690Y11940D1*
Y12378D1*
X13690Y11190D2*
X13806D1*
X14540Y10456D1*
X14940Y10056D1*
X12688Y11440D2*
X13440D1*
X13690Y11190D1*
X11452Y13244D2*
Y13826D1*
X11378Y13900D1*
X12688Y11440D2*
X12580D1*
X11940Y12080D1*
Y12755D1*
X11452Y13244D1*
X14540Y10020D2*
Y10456D1*
X5690Y7080D2*
X7304D1*
X8700D1*
X9760Y8140D1*
X10380D1*
X10820Y7700D1*
Y7357D1*
X10812Y7349D1*
Y6568D1*
X10855Y6525D1*
X12190Y9909D2*
X11829D1*
X11520Y9600D1*
X11220D1*
X9760Y8140D1*
X11599Y10696D2*
X11836D1*
X12300Y11160D1*
Y11420D1*
X12280Y11440D1*
X14120Y14380D2*
Y17060D1*
X14980Y17920D1*
X10418Y10696D2*
Y10422D1*
X10600Y10240D1*
X18080Y15220D2*
X19280D1*
X19920Y15860D1*
Y16670D1*
X19940Y16690D1*
X19315Y10484D2*
X19815D1*
Y11447D1*
X19940Y11572D1*
X19389D1*
X14940Y4940D2*
X15940D1*
Y6940D1*
X16065Y7065D1*
X16690D1*
X17315D1*
X17940D1*
X18565D1*
X19190D1*
X19815D1*
Y10484D2*
X19958D1*
X20253Y10190D1*
Y7503D1*
X19815Y7065D1*
X9631Y10696D2*
Y11256D1*
X10190Y11815D1*
X10565D1*
X10605Y11775D1*
X9672Y12378D2*
X10002D1*
X10605Y11775D1*
X7243Y12517D2*
D14*
X7596D1*
D13*
X7834Y12279D1*
X7440Y12871D2*
D14*
Y12740D1*
X7901Y12279D1*
X7834D1*
X7440Y12871D2*
Y13065D1*
D13*
X7315Y13190D1*
X6833D1*
X6690Y13047D1*
X5872D1*
X5812Y13106D1*
X5940Y13815D2*
Y13234D1*
X5812Y13106D1*
X4887Y12713D2*
X5418D1*
X5812Y13106D1*
Y15547D2*
X5281D1*
X4887Y15941D1*
X5812Y15547D2*
Y15375D1*
X5440Y15003D1*
Y13877D1*
X5502Y13815D1*
X5940D1*
X5355Y16775D2*
X4819D1*
X4815Y16771D1*
Y16013D1*
X4887Y15941D1*
X7396Y15565D2*
Y16675D1*
X7389Y16682D1*
X5812Y15547D2*
X7378D1*
X7396Y15565D1*
X6940Y18940D2*
Y18065D1*
X7377Y17627D1*
Y16693D1*
X7396Y15565D2*
Y15384D1*
X7600Y15180D1*
X9260D1*
X9680Y15600D1*
Y15805D1*
X9690Y15815D1*
X9795D1*
X10220Y16240D1*
X11000D1*
X11300Y15940D1*
Y15518D1*
X11378Y15440D1*
X12547Y18065D2*
Y17565D1*
Y17065D1*
Y16565D1*
Y16065D1*
Y15887D1*
X12100Y15440D1*
X11378D1*
X8424Y12517D2*
D14*
X8264D1*
D13*
X8071D1*
X7834Y12279D1*
X15139Y12202D2*
X14420D1*
X13781D1*
X13690Y12292D1*
X12440Y13940D2*
X12720D1*
X13520Y13140D1*
Y12462D1*
X13690Y12292D1*
X11378Y15440D2*
Y15002D1*
X11431Y14949D1*
X12440Y13940D1*
X10502Y14315D2*
X10798D1*
X11431Y14949D1*
X5690Y9940D2*
X7304D1*
X5690D2*
Y12984D1*
X5812Y13106D1*
X4690Y8797D2*
Y8940D1*
X5690Y9940D1*
X8844Y8137D2*
X8218D1*
X8190Y8109D1*
Y8290D1*
X7840Y8640D1*
Y9404D1*
X7304Y9940D1*
X11403Y7349D2*
Y6647D1*
X11525Y6525D1*
X12194D1*
X12253Y6583D1*
X12752D1*
X13023D1*
X13440Y7000D1*
Y7266D1*
X13428Y7278D1*
Y8062D1*
X13440Y8074D1*
Y8220D1*
X13840Y8620D1*
Y8710D1*
X14070Y8940D1*
X12190Y9318D2*
X12642D1*
X12780Y9180D1*
Y8734D1*
X13440Y8074D1*
X14070Y8940D2*
Y9625D1*
X14098Y9653D1*
X16065Y7065D2*
X15815D1*
X15360Y7520D1*
Y8140D1*
X15280Y8220D1*
X14790D1*
X14070Y8940D1*
X16083Y18065D2*
Y17583D1*
X16065Y17565D1*
Y16707D1*
X16082Y16690D1*
X12547Y18065D2*
Y18200D1*
X16083D1*
Y18065D1*
X14098Y9653D2*
X15013D1*
X15220Y9860D1*
Y10320D1*
X14420Y11120D1*
Y12202D1*
X18286Y11572D2*
Y10934D1*
X18780Y10440D1*
X19271D1*
X19315Y10484D1*
X8424Y12517D2*
D14*
X8557D1*
X8800Y12760D1*
D13*
X9289D1*
X9672Y12378D1*
X12190Y8137D2*
X11777D1*
X11760Y8120D1*
X16660Y9300D2*
Y8845D1*
X16690Y8815D1*
X16065D2*
X15555D1*
X15500Y8760D1*
X12620Y8060D2*
Y8200D1*
X12480Y8340D1*
X12196D1*
X12190Y8334D1*
X18565Y8815D2*
Y9095D1*
X18420Y9240D1*
X15820Y13800D2*
X15195D1*
X15139Y13855D1*
Y12753D2*
X15687D1*
X15760Y12680D1*
Y10240D1*
X16175Y9825D1*
X16615D1*
X17280Y9160D1*
Y8850D1*
X17315Y8815D1*
X15139Y13304D2*
X15796D1*
X15900Y13200D1*
X17920Y9200D2*
Y8835D1*
X17940Y8815D1*
X15139Y14407D2*
X15753D1*
X15900Y14260D1*
X19120Y9260D2*
Y8885D1*
X19190Y8815D1*
X10221Y7349D2*
Y7719D1*
X10040Y7900D1*
X8560Y5880D2*
X5800D1*
X4280Y7400D1*
Y9100D1*
X5400Y10220D1*
Y11980D1*
X5440Y12020D1*
X7420Y13480D2*
X8200D1*
X8540Y13140D1*
Y12790D1*
X8537Y12787D1*
D14*
X8424Y12674D1*
X8844Y8531D2*
D13*
X8349D1*
X8200Y8680D1*
X8080Y13760D2*
Y13988D1*
X7940Y14128D1*
X11196Y12378D2*
Y13244D1*
X10940D1*
X10905D1*
X10502Y13646D1*
X13440Y8940D2*
Y9641D1*
X13428Y9653D1*
X13113D1*
X12980Y9520D1*
X11740Y8720D2*
X12183D1*
X12190Y8727D1*
Y8924D2*
X12536D1*
X12600Y8860D1*
Y8520D1*
X12900Y8220D1*
X13840Y6700D2*
Y7020D1*
X14098Y7278D1*
Y8046D1*
X14070Y8074D1*
X19815Y7656D2*
Y8146D1*
X19190Y7656D2*
Y8146D1*
X18565Y7656D2*
Y8146D1*
X17940Y7656D2*
Y8146D1*
X17315D2*
Y7656D1*
X16690Y8146D2*
Y7656D1*
X16065Y8146D2*
Y7656D1*
X11275Y11775D2*
X11605D1*
X11940Y11440D1*
X11452Y12378D2*
Y11952D1*
X11275Y11775D1*
X8424Y12359D2*
D14*
X8561D1*
D13*
X8580Y12340D1*
X8965D1*
X9002Y12378D1*
X6838Y16584D2*
D15*
X6670D1*
D13*
X6216D1*
X6025Y16775D1*
Y16462D1*
X6002Y16440D1*
X7690Y17690D2*
X8002D1*
X8065Y17627D1*
Y18109D1*
X8083Y18128D1*
X7940Y16387D2*
D15*
X8108D1*
D13*
X8133D1*
X8700Y15820D1*
X9016D1*
X9021Y15815D1*
X7940Y16584D2*
D15*
X8108D1*
D13*
Y16560D1*
X8776D1*
X8980Y16355D1*
X7940Y16977D2*
D15*
X8108D1*
D13*
Y17000D1*
X8956D1*
X8980Y17025D1*
X9525D1*
X9815Y17315D1*
X14940Y9190D2*
Y8690D1*
X4815Y17440D2*
X5127D1*
X5396D1*
X7940Y16781D2*
D15*
X8108D1*
D13*
X8359D1*
X5127Y17815D2*
Y17440D1*
X14940Y9190D2*
Y9220D1*
X15480Y9760D1*
Y10860D1*
X14640Y11700D1*
X13560Y13480D2*
Y13580D1*
X12617Y14523D1*
X12257D1*
X11760Y15020D1*
X6838Y16781D2*
D15*
X6670D1*
D13*
X6599D1*
X6503Y16878D1*
Y16315D2*
X6766D1*
X6770Y16319D1*
D15*
X6838Y16387D1*
Y16292D1*
D13*
Y16285D1*
D15*
Y16190D1*
X7940D2*
Y16095D1*
D13*
Y15690D1*
X8065Y15565D1*
X8395D1*
X8560Y15400D1*
X7962Y14650D2*
X8070D1*
X8480Y14240D1*
X9300Y8700D2*
X8871D1*
X8844Y8727D1*
X5690Y9080D2*
X7304D1*
X12190Y9121D2*
X11379D1*
X11340Y9160D1*
X7360Y8540D2*
Y9024D1*
X7304Y9080D1*
X18838Y16690D2*
Y15998D1*
X18560Y15720D1*
X17600D1*
X17420Y15540D1*
X9300Y9320D2*
X8846D1*
X8844Y9318D1*
X7243Y12044D2*
D14*
X7083D1*
D13*
X7024D1*
X6880Y11900D1*
Y11067D1*
X6815Y11002D1*
Y10695D1*
X7320Y6660D2*
X9120D1*
X9360Y6900D1*
X10260D1*
X10420Y7060D1*
Y7348D1*
X10418Y7349D1*
X10025Y10696D2*
Y10335D1*
X10140Y10220D1*
X10315Y6565D2*
Y6715D1*
X10600Y7000D1*
Y7334D1*
X10615Y7349D1*
X7243Y11887D2*
D14*
Y11797D1*
D13*
Y11683D1*
X7140Y11580D1*
X7280Y6140D2*
X7960D1*
X8060Y6240D1*
X9500D1*
X9640Y6100D1*
X10260Y6220D2*
Y6510D1*
X10315Y6565D1*
X9828Y10696D2*
Y9792D1*
X10120Y9500D1*
X6065Y17440D2*
X6572D1*
X6719Y17293D1*
D15*
X6838Y17174D1*
X11206Y10696D2*
D13*
Y10294D1*
X17060Y9740D2*
Y9880D1*
X17720Y10540D1*
Y11557D1*
X17735Y11572D1*
X16082D2*
X15980D1*
Y10460D1*
X11400Y11100D2*
Y10699D1*
X11403Y10696D1*
X18838Y11572D2*
Y12022D1*
X18500Y12360D1*
X10540Y11240D2*
Y11080D1*
X10600Y11020D1*
Y10711D1*
X10615Y10696D1*
X11009D2*
Y11009D1*
X11140Y11140D1*
Y11380D1*
X16700Y10060D2*
X16760D1*
X17200Y10500D1*
Y11556D1*
X17184Y11572D1*
X16633D2*
Y10733D1*
X16140Y10240D1*
X10820Y11140D2*
Y10704D1*
X10812Y10696D1*
X8844Y9909D2*
X9391D1*
X10020Y9280D1*
X10260D1*
X10400Y9420D1*
Y9760D1*
X10640Y10000D1*
X11380D1*
X12322Y10942D1*
X12442D1*
X12540Y11040D1*
X13800Y12920D2*
X13860Y12980D1*
Y13700D1*
X12980Y14580D1*
Y17780D1*
X8844Y10105D2*
Y10424D1*
X9080Y10660D1*
X8844Y9712D2*
X9328D1*
X9920Y9120D1*
X10380D1*
X10580Y9320D1*
Y9660D1*
X10760Y9840D1*
X11460D1*
X12340Y10720D1*
X12660D1*
X12780Y10840D1*
X14420Y14360D2*
Y16840D1*
X15280Y17700D1*
X8844Y9515D2*
X8465D1*
X8360Y9620D1*
Y10400D1*
X8780Y10820D1*
X10000Y14400D2*
X9660D1*
X9400Y14660D1*
Y14940D1*
X10120Y15660D1*
X11220Y16860D2*
Y18260D1*
X11420Y18460D1*
X13460D1*
X13940Y18940D1*
X9434Y7349D2*
X9269D1*
X9000Y7080D1*
X8844Y8334D2*
X9206D1*
X9400Y8140D1*
X8240Y5620D2*
Y5240D1*
X7940Y4940D1*
X8844Y9121D2*
X8419D1*
X8180Y9360D1*
Y10260D1*
X7840Y10600D1*
X8844Y8924D2*
X8276D1*
X8000Y9200D1*
Y9900D1*
X7620Y10280D1*
X6420D1*
X6060Y10640D1*
Y12360D1*
X5980Y12440D1*
X5940Y14583D2*
X7226D1*
X7293Y14650D1*
X5940Y14327D2*
X7071D1*
X7271Y14128D1*
Y13809D1*
X7300Y13780D1*
X10060Y14880D2*
X10318D1*
X10503Y15065D1*
X13940Y4940D2*
Y5940D1*
X14940Y6940D1*
Y7824D1*
X12940Y4940D2*
X13940D1*
X12314Y12346D2*
Y13066D1*
X12440Y13192D1*
X5940Y14839D2*
X6779D1*
X6940Y15000D1*
X8318D1*
X10375Y12943D1*
X10940Y12378D1*
X12440Y13192D2*
X11988D1*
X11720Y13460D1*
X10511Y13080D2*
X10375Y12943D1*
X19389Y16690D2*
Y15689D1*
X19160Y15460D1*
X17960D1*
X17760Y15260D1*
X9960Y11160D2*
X10120D1*
X10200Y11080D1*
Y10717D1*
X10221Y10696D1*
D49*
X11600Y9340D3*
X11660Y6920D3*
X7140Y10500D3*
X6540Y8120D3*
X7720Y13260D3*
X7140Y10500D3*
X18880Y10060D3*
X17740Y15940D3*
X11440Y18040D3*
X10800Y15980D3*
X11400Y16600D3*
X9660Y14880D3*
X7720Y13260D3*
X14540Y10020D3*
X12280Y11440D3*
X14120Y14380D3*
X14980Y17920D3*
X10600Y10240D3*
X18080Y15220D3*
X11760Y8120D3*
X16660Y9300D3*
X15500Y8760D3*
X12620Y8060D3*
X18420Y9240D3*
X15820Y13800D3*
X15900Y13200D3*
X17920Y9200D3*
X15900Y14260D3*
X19120Y9260D3*
X10040Y7900D3*
X8560Y5880D3*
X5440Y12020D3*
X7420Y13480D3*
X8200Y8680D3*
X8080Y13760D3*
X12980Y9520D3*
X11740Y8720D3*
X12900Y8220D3*
X13840Y6700D3*
X6002Y16440D3*
X7690Y17690D3*
X8359Y16781D3*
X5127Y17815D3*
X14640Y11700D3*
X13560Y13480D3*
X11760Y15020D3*
X8359Y16781D3*
X6503Y16878D3*
Y16315D3*
X8560Y15400D3*
X8480Y14240D3*
X9300Y8700D3*
X11340Y9160D3*
X7360Y8540D3*
X17420Y15540D3*
X9300Y9320D3*
X6815Y10695D3*
X7320Y6660D3*
X10140Y10220D3*
X7140Y11580D3*
X7280Y6140D3*
X9640Y6100D3*
X10260Y6220D3*
X10120Y9500D3*
X11206Y10294D3*
X17060Y9740D3*
X15980Y10460D3*
X11400Y11100D3*
X18500Y12360D3*
X10540Y11240D3*
X11140Y11380D3*
X16700Y10060D3*
X16140Y10240D3*
X10820Y11140D3*
X12540Y11040D3*
X13800Y12920D3*
X12980Y17780D3*
X9080Y10660D3*
X12780Y10840D3*
X14420Y14360D3*
X15280Y17700D3*
X8780Y10820D3*
X10000Y14400D3*
X10120Y15660D3*
X11220Y16860D3*
X9000Y7080D3*
X9400Y8140D3*
X8240Y5620D3*
X7840Y10600D3*
X5980Y12440D3*
X7300Y13780D3*
X10060Y14880D3*
X11720Y13460D3*
X10511Y13080D3*
X17760Y15260D3*
X9960Y11160D3*
X4350Y19306D2*
D16*
X7439D1*
X16438D2*
X19790D1*
X4350Y19058D2*
X7325D1*
X16551D2*
X19790D1*
X4350Y18809D2*
X7329D1*
X16551D2*
X19790D1*
X4350Y18560D2*
X7450D1*
X16430D2*
X19790D1*
X4350Y18312D2*
X7575D1*
X10418D2*
X10884D1*
X13782D2*
X16247D1*
X17258D2*
X19790D1*
X4350Y18063D2*
X4833D1*
X5418D2*
X7560D1*
X12383D2*
X12724D1*
X13235D2*
X14618D1*
X15344D2*
X16247D1*
X17258D2*
X19790D1*
X6571Y17814D2*
X7321D1*
X12383D2*
X12591D1*
X13368D2*
X14404D1*
X15653D2*
X16228D1*
X17258D2*
X19790D1*
X6918Y17565D2*
X7321D1*
X12383D2*
X12642D1*
X13321D2*
X14154D1*
X15645D2*
X16228D1*
X17243D2*
X19790D1*
X7246Y17317D2*
X7532D1*
X12383D2*
X12642D1*
X13321D2*
X13907D1*
X15368D2*
X16146D1*
X7246Y17068D2*
X7532D1*
X12383D2*
X12642D1*
X13321D2*
X13779D1*
X15118D2*
X16146D1*
X4350Y16819D2*
X5517D1*
X7246D2*
X7532D1*
X12383D2*
X12642D1*
X13321D2*
X13779D1*
X14871D2*
X16146D1*
X4350Y16571D2*
X5517D1*
X7246D2*
X7532D1*
X12383D2*
X12642D1*
X13321D2*
X13779D1*
X14758D2*
X16146D1*
X4350Y16322D2*
X5517D1*
X7246D2*
X7532D1*
X9465D2*
X10650D1*
X12383D2*
X12642D1*
X13321D2*
X13779D1*
X15911D2*
X16146D1*
X4774Y16073D2*
X5001D1*
X5680D2*
X6204D1*
X7246D2*
X7532D1*
X9528D2*
X10017D1*
X11176D2*
X11372D1*
X12383D2*
X12642D1*
X13321D2*
X13779D1*
X15911D2*
X16146D1*
X5680Y15825D2*
X7560D1*
X9528D2*
X9771D1*
X11157D2*
X11372D1*
X12383D2*
X12642D1*
X13321D2*
X13779D1*
X15911D2*
X17165D1*
X5680Y15576D2*
X7560D1*
X10989D2*
X12642D1*
X13321D2*
X13779D1*
X15911D2*
X17032D1*
X5934Y15327D2*
X7560D1*
X8942D2*
X9318D1*
X10989D2*
X11540D1*
X11981D2*
X12642D1*
X13321D2*
X13779D1*
X15911D2*
X17099D1*
X8758Y15079D2*
X9091D1*
X10989D2*
X11376D1*
X12172D2*
X12642D1*
X13321D2*
X13779D1*
X15911D2*
X17419D1*
X19610D2*
X19789D1*
X8957Y14830D2*
X9060D1*
X10989D2*
X11423D1*
X13321D2*
X13779D1*
X15911D2*
X19790D1*
X10442Y14581D2*
X11728D1*
X13450D2*
X13779D1*
X16098D2*
X19790D1*
X10383Y14333D2*
X10673D1*
X16282D2*
X19790D1*
X12082Y14084D2*
X12587D1*
X16246D2*
X19790D1*
X6496Y13835D2*
X6763D1*
X8461D2*
X9013D1*
X12082D2*
X12833D1*
X14168D2*
X14368D1*
X16207D2*
X19790D1*
X5934Y13586D2*
X6966D1*
X8563D2*
X9259D1*
X14200D2*
X14368D1*
X16141D2*
X19790D1*
X5934Y13338D2*
X7060D1*
X8809D2*
X9509D1*
X13024D2*
X13200D1*
X14200D2*
X14368D1*
X16262D2*
X19790D1*
X5680Y13089D2*
X7306D1*
X8879D2*
X9759D1*
X13024D2*
X13450D1*
X14200D2*
X14368D1*
X16274D2*
X19790D1*
X5680Y12840D2*
X6204D1*
X8879D2*
X10005D1*
X13024D2*
X13419D1*
X14180D2*
X14368D1*
X16055D2*
X19790D1*
X4754Y12592D2*
X5001D1*
X9508D2*
X10255D1*
X12731D2*
X13614D1*
X13985D2*
X14368D1*
X16098D2*
X18193D1*
X18805D2*
X19790D1*
X4350Y12343D2*
X5247D1*
X7641D2*
X8025D1*
X9508D2*
X10505D1*
X12731D2*
X14368D1*
X16098D2*
X18111D1*
X18989D2*
X19790D1*
X4350Y12094D2*
X5056D1*
X7637D2*
X8029D1*
X9508D2*
X10571D1*
X12731D2*
X15419D1*
X19325D2*
X19790D1*
X4350Y11846D2*
X5060D1*
X9567D2*
X10767D1*
X13106D2*
X14282D1*
X15000D2*
X15419D1*
X18223D2*
X18353D1*
X19325D2*
X19790D1*
X4350Y11597D2*
X5060D1*
X9766D2*
X10439D1*
X10640D2*
X10770D1*
X15215D2*
X15419D1*
X18223D2*
X18353D1*
X19325D2*
X19790D1*
X4350Y11348D2*
X5060D1*
X18223D2*
X18353D1*
X19325D2*
X19790D1*
X4350Y11100D2*
X5060D1*
X7993D2*
X8521D1*
X14512D2*
X14771D1*
X18223D2*
X18353D1*
X19325D2*
X19790D1*
X4350Y10851D2*
X5060D1*
X8129D2*
X8341D1*
X14614D2*
X15021D1*
X18223D2*
X18353D1*
X19325D2*
X19790D1*
X4350Y10602D2*
X5060D1*
X13082D2*
X13923D1*
X14864D2*
X15142D1*
X18059D2*
X19790D1*
X4350Y10354D2*
X5060D1*
X5739D2*
X5877D1*
X12715D2*
X14173D1*
X18000D2*
X18638D1*
X19121D2*
X19790D1*
X4350Y10105D2*
X4814D1*
X5719D2*
X6126D1*
X12715D2*
X12923D1*
X13934D2*
X14161D1*
X17754D2*
X18493D1*
X4350Y9856D2*
X4568D1*
X5508D2*
X7575D1*
X12715D2*
X12814D1*
X13934D2*
X14189D1*
X17508D2*
X18552D1*
X5258Y9607D2*
X7661D1*
X13934D2*
X14857D1*
X15782D2*
X15922D1*
X17426D2*
X18829D1*
X5008Y9359D2*
X5224D1*
X13957D2*
X14532D1*
X15547D2*
X16275D1*
X4762Y9110D2*
X5224D1*
X13957D2*
X14532D1*
X4621Y8861D2*
X5224D1*
X7770D2*
X7858D1*
X10954D2*
X11107D1*
X13957D2*
X14532D1*
X4621Y8613D2*
X6978D1*
X7743D2*
X7820D1*
X9680D2*
X9760D1*
X10704D2*
X11364D1*
X6157Y8364D2*
X6243D1*
X7770D2*
X7993D1*
X10625D2*
X11462D1*
X13262D2*
X13552D1*
X15348D2*
X15579D1*
X7985Y8115D2*
X8318D1*
X10875D2*
X11368D1*
X13274D2*
X13552D1*
X15348D2*
X15579D1*
X11114Y7867D2*
X11474D1*
X13016D2*
X13552D1*
X15348D2*
X15579D1*
X6157Y7618D2*
X6837D1*
X13239D2*
X13552D1*
X15348D2*
X15618D1*
X13239Y7369D2*
X13591D1*
X15282D2*
X15618D1*
X13239Y7121D2*
X13517D1*
X15282D2*
X19790D1*
X13239Y6872D2*
X13493D1*
X15274D2*
X19790D1*
X4350Y6623D2*
X4587D1*
X11899D2*
X13458D1*
X15094D2*
X19790D1*
X4350Y6375D2*
X4833D1*
X11364D2*
X13650D1*
X14844D2*
X19790D1*
X4350Y6126D2*
X5083D1*
X11364D2*
X13661D1*
X14598D2*
X19790D1*
X4350Y5877D2*
X5333D1*
X8950D2*
X9325D1*
X10411D2*
X13599D1*
X14348D2*
X19790D1*
X4350Y5628D2*
X5587D1*
X8848D2*
X9599D1*
X10282D2*
X13599D1*
X14282D2*
X19790D1*
X4350Y5380D2*
X6314D1*
X9371D2*
X9511D1*
X10371D2*
X10511D1*
X11371D2*
X11511D1*
X12371D2*
X12511D1*
X13371D2*
X13511D1*
X14371D2*
X19790D1*
X4350Y5131D2*
X6314D1*
X14532D2*
X19790D1*
X4350Y4882D2*
X6314D1*
X14563D2*
X19790D1*
X4350Y4634D2*
X6314D1*
X14481D2*
X19790D1*
X4350Y4385D2*
X6314D1*
X7563D2*
X7689D1*
X8192D2*
X8689D1*
X9192D2*
X9689D1*
X10192D2*
X10689D1*
X11192D2*
X11689D1*
X12192D2*
X12689D1*
X13192D2*
X13689D1*
X14192D2*
X19790D1*
X17398Y17437D2*
X18200D1*
X18751D1*
X19302D1*
X19818D1*
X19815Y17950D1*
Y19555D1*
X4325D1*
Y16075D1*
X4748Y16078D1*
Y15863D1*
X5027Y15862D1*
X5025Y16078D1*
X5654D1*
Y15347D1*
X5909Y15350D1*
Y15182D1*
X6471D1*
Y15155D1*
X6647Y15154D1*
X6717Y15223D1*
X6821Y15292D1*
X6940Y15315D1*
X7585D1*
X7583Y15880D1*
X7557D1*
X7561Y16500D1*
X7557Y16773D1*
X7561Y16894D1*
X7557Y17167D1*
X7561Y17288D1*
X7557Y17239D1*
Y17352D1*
X7520Y17367D1*
X7422Y17443D1*
X7354Y17547D1*
X7326Y17668D1*
X7340Y17792D1*
X7394Y17904D1*
X7483Y17991D1*
X7583Y18041D1*
Y18089D1*
X7603D1*
X7602Y18443D1*
X7544Y18490D1*
X7459Y18582D1*
X7395Y18689D1*
X7355Y18807D1*
X7340Y18931D1*
X7352Y19055D1*
X7388Y19175D1*
X7449Y19284D1*
X7531Y19378D1*
X7630Y19453D1*
X7743Y19506D1*
X7864Y19535D1*
X7989Y19538D1*
X8112Y19515D1*
X8227Y19467D1*
X8330Y19396D1*
X8416Y19305D1*
X8438Y19269D1*
X8531Y19378D1*
X8630Y19453D1*
X8743Y19506D1*
X8864Y19535D1*
X8989Y19538D1*
X9112Y19515D1*
X9227Y19467D1*
X9330Y19396D1*
X9416Y19305D1*
X9438Y19269D1*
X9531Y19378D1*
X9630Y19453D1*
X9743Y19506D1*
X9864Y19535D1*
X9989Y19538D1*
X10112Y19515D1*
X10227Y19467D1*
X10330Y19396D1*
X10416Y19305D1*
X10438Y19269D1*
X10531Y19378D1*
X10630Y19453D1*
X10743Y19506D1*
X10864Y19535D1*
X10989Y19538D1*
X11112Y19515D1*
X11227Y19467D1*
X11330Y19396D1*
X11416Y19305D1*
X11438Y19269D1*
X11531Y19378D1*
X11630Y19453D1*
X11743Y19506D1*
X11864Y19535D1*
X11989Y19538D1*
X12112Y19515D1*
X12227Y19467D1*
X12330Y19396D1*
X12416Y19305D1*
X12438Y19269D1*
X12531Y19378D1*
X12630Y19453D1*
X12743Y19506D1*
X12864Y19535D1*
X12989Y19538D1*
X13112Y19515D1*
X13227Y19467D1*
X13330Y19396D1*
X13416Y19305D1*
X13438Y19269D1*
X13531Y19378D1*
X13630Y19453D1*
X13743Y19506D1*
X13864Y19535D1*
X13989Y19538D1*
X14112Y19515D1*
X14227Y19467D1*
X14330Y19396D1*
X14416Y19305D1*
X14438Y19269D1*
X14531Y19378D1*
X14630Y19453D1*
X14743Y19506D1*
X14864Y19535D1*
X14989Y19538D1*
X15112Y19515D1*
X15227Y19467D1*
X15330Y19396D1*
X15416Y19305D1*
X15438Y19269D1*
X15531Y19378D1*
X15630Y19453D1*
X15743Y19506D1*
X15864Y19535D1*
X15989Y19538D1*
X16112Y19515D1*
X16227Y19467D1*
X16330Y19396D1*
X16416Y19305D1*
X16481Y19199D1*
X16523Y19081D1*
X16540Y18940D1*
X16527Y18816D1*
X16488Y18697D1*
X16426Y18589D1*
X16372Y18528D1*
X17234Y18527D1*
Y17603D1*
X17215D1*
X17216Y17437D1*
X17646Y17433D1*
X17898Y17437D1*
X18197Y17433D1*
X18450Y17437D1*
X18748Y17433D1*
X19001Y17437D1*
X19299Y17433D1*
X19552Y17437D1*
X19816D1*
X17373Y15943D2*
X17273Y15947D1*
X17021Y15943D1*
X16722Y15947D1*
X16470Y15943D1*
X16171D1*
Y17437D1*
X16253D1*
Y18027D1*
X16272D1*
X16271Y18443D1*
X16129Y18371D1*
X16007Y18344D1*
X15882Y18343D1*
X15760Y18368D1*
X15645Y18418D1*
X15544Y18490D1*
X15441Y18612D1*
X15343Y18496D1*
X15242Y18422D1*
X15129Y18371D1*
X15007Y18344D1*
X14882Y18343D1*
X14760Y18368D1*
X14645Y18418D1*
X14544Y18490D1*
X14441Y18612D1*
X14343Y18496D1*
X14242Y18422D1*
X14129Y18371D1*
X14007Y18344D1*
X13882Y18343D1*
X13802Y18360D1*
X13683Y18237D1*
X13579Y18168D1*
X13460Y18145D1*
X12362D1*
X12359Y17603D1*
Y17103D1*
Y16603D1*
Y16103D1*
Y15603D1*
X11396D1*
Y16232D1*
X11230Y16277D1*
X11221Y16284D1*
X10999Y16285D1*
X11053Y16243D1*
X11127Y16142D1*
X11162Y16023D1*
X11165Y15980D1*
X11144Y15857D1*
X11083Y15749D1*
X10989Y15668D1*
X10963Y15658D1*
X10960Y15253D1*
X10964Y15172D1*
Y14583D1*
X10421D1*
X10327Y14562D1*
X10362Y14443D1*
X10365Y14400D1*
X10344Y14277D1*
X10283Y14169D1*
X10233Y14126D1*
X10701Y14127D1*
X10698Y14415D1*
X11920D1*
X11667Y14668D1*
X11590Y14697D1*
X11492Y14773D1*
X11424Y14877D1*
X11396Y14998D1*
X11410Y15122D1*
X11464Y15234D1*
X11553Y15321D1*
X11666Y15373D1*
X11790Y15384D1*
X11910Y15353D1*
X12013Y15283D1*
X12087Y15182D1*
X12106Y15119D1*
X12389Y14837D1*
X12628D1*
X12665Y14955D1*
Y17600D1*
X12644Y17637D1*
X12616Y17758D1*
X12630Y17882D1*
X12684Y17994D1*
X12773Y18081D1*
X12886Y18133D1*
X13010Y18144D1*
X13130Y18113D1*
X13233Y18043D1*
X13307Y17942D1*
X13342Y17823D1*
X13345Y17780D1*
X13324Y17657D1*
X13295Y17607D1*
Y14714D1*
X13797Y14209D1*
X13756Y14358D1*
X13770Y14482D1*
X13805Y14555D1*
Y17060D1*
X13829Y17182D1*
X13897Y17283D1*
X14630Y18022D1*
X14684Y18134D1*
X14773Y18221D1*
X14886Y18273D1*
X15010Y18284D1*
X15130Y18253D1*
X15233Y18183D1*
X15312Y18064D1*
X15430Y18033D1*
X15533Y17963D1*
X15607Y17862D1*
X15642Y17743D1*
X15645Y17700D1*
X15624Y17577D1*
X15563Y17469D1*
X15469Y17388D1*
X15378Y17352D1*
X14738Y16712D1*
X14735Y16524D1*
X15887Y16522D1*
X15883Y15598D1*
X15887Y15346D1*
X15883Y15047D1*
X15887Y14795D1*
Y14693D1*
X15978Y14627D1*
X16050Y14593D1*
X16153Y14523D1*
X16227Y14422D1*
X16262Y14303D1*
X16265Y14260D1*
X16244Y14137D1*
X16183Y14029D1*
X16133Y13986D1*
X16182Y13843D1*
X16185Y13800D1*
X16164Y13677D1*
X16103Y13569D1*
X16059Y13531D1*
X16153Y13463D1*
X16227Y13362D1*
X16262Y13243D1*
X16265Y13200D1*
X16244Y13077D1*
X16183Y12969D1*
X16089Y12888D1*
X16020Y12861D1*
X16056Y12788D1*
X16075Y12680D1*
Y12317D1*
X16544Y12319D1*
X17095D1*
X17646D1*
X18137D1*
X18150Y12462D1*
X18204Y12574D1*
X18293Y12661D1*
X18406Y12713D1*
X18530Y12724D1*
X18650Y12693D1*
X18753Y12623D1*
X18827Y12522D1*
X18846Y12459D1*
X18985Y12320D1*
X19299Y12319D1*
Y10825D1*
X18376D1*
Y12016D1*
X18330Y12037D1*
X18232Y12113D1*
X18196Y12168D1*
X18197Y10825D1*
X18037D1*
X18035Y10540D1*
X18011Y10418D1*
X17943Y10317D1*
X17421Y9795D1*
X17425Y9740D1*
X17404Y9617D1*
X17356Y9533D1*
X17510Y9374D1*
X17570Y9302D1*
X17624Y9414D1*
X17713Y9501D1*
X17826Y9553D1*
X17950Y9564D1*
X18070Y9533D1*
X18144Y9482D1*
X18213Y9541D1*
X18326Y9593D1*
X18450Y9604D1*
X18570Y9573D1*
X18673Y9503D1*
X18747Y9402D1*
X18766Y9339D1*
X18824Y9474D1*
X18855Y9504D1*
X18853Y9642D1*
X18789Y9706D1*
X18710Y9737D1*
X18612Y9813D1*
X18544Y9917D1*
X18516Y10038D1*
X18530Y10162D1*
X18584Y10274D1*
X18673Y10361D1*
X18786Y10413D1*
X18910Y10424D1*
X19030Y10393D1*
X19133Y10323D1*
X19154Y10295D1*
X19777Y10297D1*
X19818D1*
X19815Y10950D1*
Y15313D1*
X19503Y14997D1*
X19399Y14928D1*
X19280Y14905D1*
X18260D1*
X18153Y14862D1*
X18029Y14859D1*
X17910Y14897D1*
X17882Y14918D1*
X17833Y14902D1*
X17709Y14899D1*
X17590Y14937D1*
X17492Y15013D1*
X17424Y15117D1*
X17411Y15174D1*
X17369Y15179D1*
X17250Y15217D1*
X17152Y15293D1*
X17084Y15397D1*
X17056Y15518D1*
X17070Y15642D1*
X17124Y15754D1*
X17213Y15841D1*
X17330Y15893D1*
X17375Y15941D1*
X14396Y12842D2*
X14392Y13092D1*
Y13769D1*
Y13995D1*
X14247Y14039D1*
X14193Y14022D1*
X14069Y14019D1*
X13941Y14064D1*
X14083Y13923D1*
X14152Y13819D1*
X14175Y13700D1*
X14171Y12929D1*
X14144Y12797D1*
X14083Y12689D1*
X13989Y12608D1*
X13873Y12562D1*
X13749Y12559D1*
X13630Y12597D1*
X13532Y12673D1*
X13464Y12777D1*
X13436Y12898D1*
X13450Y13022D1*
X13499Y13123D1*
X13390Y13157D1*
X13292Y13233D1*
X13224Y13337D1*
X13196Y13458D1*
X13200Y13493D1*
X12998Y13697D1*
X13000Y12671D1*
X12707D1*
Y11910D1*
X13081Y11912D1*
Y11767D1*
X14144Y11770D1*
X14280D1*
X14344Y11914D1*
X14433Y12001D1*
X14546Y12053D1*
X14670Y12064D1*
X14790Y12033D1*
X14893Y11963D1*
X14967Y11862D1*
X14986Y11799D1*
X15446Y11340D1*
X15445Y12291D1*
X14392D1*
X14396Y13215D1*
X14392Y13467D1*
X14396Y13766D1*
X14392Y13999D1*
X12691Y10233D2*
Y9744D1*
X12773Y9821D1*
X12899Y9883D1*
X12947Y9941D1*
Y10114D1*
X13910D1*
Y9478D1*
X13931Y9481D1*
Y8617D1*
X14558Y8614D1*
X14561Y9073D1*
X14557Y9182D1*
Y9573D1*
X14850D1*
X14947Y9672D1*
X14655Y9673D1*
X14613Y9662D1*
X14489Y9659D1*
X14370Y9697D1*
X14272Y9773D1*
X14204Y9877D1*
X14176Y9998D1*
X14190Y10122D1*
X14225Y10195D1*
Y10329D1*
X13942Y10609D1*
X13063D1*
X12969Y10528D1*
X12878Y10492D1*
X12769Y10425D1*
X12691Y10304D1*
Y9804D1*
X8342Y8206D2*
Y8216D1*
X8221Y8243D1*
X8107Y8327D1*
X8123Y8313D1*
X8030Y8357D1*
X7932Y8433D1*
X7864Y8537D1*
X7836Y8658D1*
X7850Y8782D1*
X7889Y8862D1*
X7770Y8986D1*
X7746Y8917D1*
Y8618D1*
X7719D1*
X7725Y8540D1*
X7694Y8400D1*
X7746Y8402D1*
Y8250D1*
X7812Y8231D1*
X7913Y8163D1*
X8153Y7922D1*
X8232Y7928D1*
X8340Y8036D1*
X8342Y8217D1*
X8228Y8240D1*
X8125Y8310D1*
X11093Y7851D2*
X11136Y7847D1*
X11382Y7851D1*
X11513D1*
X11424Y7977D1*
X11396Y8098D1*
X11410Y8222D1*
X11464Y8334D1*
X11545Y8413D1*
X11472Y8473D1*
X11404Y8577D1*
X11376Y8698D1*
X11386Y8795D1*
X11289Y8799D1*
X11170Y8837D1*
X11072Y8913D1*
X11036Y8968D1*
X10495Y8430D1*
X10607Y8358D1*
X11050Y7914D1*
X11185Y7851D1*
X11333Y7847D1*
X11275Y7851D1*
X11514D1*
X6471Y14012D2*
Y13727D1*
X5909Y13725D1*
Y13284D1*
X5655D1*
X5654Y12605D1*
X5684Y12654D1*
X5773Y12741D1*
X5886Y12793D1*
X6010Y12804D1*
X6130Y12773D1*
X6230Y12705D1*
X6228Y12859D1*
X6927D1*
X6999Y12925D1*
X7114Y12973D1*
X7172Y12972D1*
X7173Y12979D1*
X7294D1*
X7339Y13102D1*
X7357Y13122D1*
X7250Y13157D1*
X7152Y13233D1*
X7084Y13337D1*
X7056Y13458D1*
X7060Y13501D1*
X6964Y13637D1*
X6958Y13664D1*
X6789Y13666D1*
Y14013D1*
X6474Y14012D1*
X6467Y13983D1*
X12056Y13713D2*
X12981D1*
X12484Y14211D1*
X12257Y14208D1*
X12125Y14238D1*
X12058Y14165D1*
Y13716D1*
X16228Y9294D2*
X16295Y9297D1*
X16310Y9402D1*
X16362Y9510D1*
X16175D1*
X16054Y9534D1*
X15953Y9602D1*
X15795Y9752D1*
X15767Y9631D1*
X15703Y9537D1*
X15324Y9159D1*
X15406Y9113D1*
X15555Y9130D1*
X15606D1*
X15603Y9297D1*
X16228D1*
X15605Y8333D2*
X15603Y8408D1*
X15449Y8399D1*
X15321Y8444D1*
X15323Y8307D1*
X14561D1*
Y8204D1*
X15323Y8207D1*
Y7441D1*
X15257D1*
X15255Y6940D1*
X15231Y6818D1*
X15163Y6717D1*
X14254Y5809D1*
X14255Y5452D1*
X14330Y5396D1*
X14416Y5305D1*
X14481Y5199D1*
X14523Y5081D1*
X14540Y4940D1*
X14527Y4816D1*
X14488Y4697D1*
X14426Y4589D1*
X14343Y4496D1*
X14242Y4422D1*
X14129Y4371D1*
X14007Y4344D1*
X13882Y4343D1*
X13760Y4368D1*
X13645Y4418D1*
X13544Y4490D1*
X13441Y4612D1*
X13343Y4496D1*
X13242Y4422D1*
X13129Y4371D1*
X13007Y4344D1*
X12882Y4343D1*
X12760Y4368D1*
X12645Y4418D1*
X12544Y4490D1*
X12441Y4612D1*
X12343Y4496D1*
X12242Y4422D1*
X12129Y4371D1*
X12007Y4344D1*
X11882Y4343D1*
X11760Y4368D1*
X11645Y4418D1*
X11544Y4490D1*
X11441Y4612D1*
X11343Y4496D1*
X11242Y4422D1*
X11129Y4371D1*
X11007Y4344D1*
X10882Y4343D1*
X10760Y4368D1*
X10645Y4418D1*
X10544Y4490D1*
X10441Y4612D1*
X10343Y4496D1*
X10242Y4422D1*
X10129Y4371D1*
X10007Y4344D1*
X9882Y4343D1*
X9760Y4368D1*
X9645Y4418D1*
X9544Y4490D1*
X9441Y4612D1*
X9343Y4496D1*
X9242Y4422D1*
X9129Y4371D1*
X9007Y4344D1*
X8882Y4343D1*
X8760Y4368D1*
X8645Y4418D1*
X8544Y4490D1*
X8441Y4612D1*
X8343Y4496D1*
X8242Y4422D1*
X8129Y4371D1*
X8007Y4344D1*
X7882Y4343D1*
X7760Y4368D1*
X7645Y4418D1*
X7541Y4493D1*
X7540Y4340D1*
X6340D1*
Y5540D1*
X7540D1*
Y5387D1*
X7630Y5453D1*
X7743Y5506D1*
X7884Y5535D1*
X7810Y5565D1*
X5800D1*
X5678Y5589D1*
X5577Y5657D1*
X4326Y6909D1*
X4325Y4325D1*
X19815D1*
Y7235D1*
X19393Y7233D1*
X18768D1*
X18143D1*
X17518D1*
X16893D1*
X16268D1*
X15643D1*
Y7667D1*
X15603Y7664D1*
Y8410D1*
X6987Y9542D2*
X7686D1*
X7685Y9766D1*
X7487Y9967D1*
X6420Y9965D1*
X6298Y9989D1*
X6197Y10057D1*
X5837Y10417D1*
X5768Y10521D1*
X5745Y10640D1*
Y11824D1*
X5714Y11781D1*
X5715Y10220D1*
X5691Y10098D1*
X5623Y9997D1*
X4592Y8967D1*
X4595Y8612D1*
X5152Y8609D1*
Y8441D1*
X5503Y8442D1*
X5634Y8413D1*
X5873Y8402D1*
X6132D1*
Y8257D1*
X6202Y8255D1*
X6244Y8334D1*
X6333Y8421D1*
X6446Y8473D1*
X6570Y8484D1*
X6690Y8453D1*
X6793Y8383D1*
X6860Y8292D1*
X6862Y8402D1*
X7022D1*
X6996Y8518D1*
X7006Y8615D1*
X6862Y8618D1*
Y8763D1*
X6128Y8765D1*
X6132Y8618D1*
X5248D1*
Y9542D1*
X6132D1*
Y9397D1*
X6866Y9395D1*
X6862Y9542D1*
X6987D1*
X6132Y7625D2*
X6128Y7478D1*
X6132Y7397D1*
X6866Y7395D1*
X6862Y7623D1*
X6130Y7625D1*
X6132Y7417D1*
X10166Y16216D2*
X10521D1*
X10593Y16281D1*
X10695Y16328D1*
X10496Y16518D1*
X10210Y16524D1*
X9650Y16520D1*
X9443D1*
X9442Y16278D1*
X9502Y16277D1*
Y15484D1*
X9766Y15751D1*
X9824Y15874D1*
X9913Y15961D1*
X10038Y16014D1*
X10041Y16216D1*
X10166D1*
X13576Y8399D2*
X13217D1*
X13262Y8263D1*
X13265Y8220D1*
X13244Y8097D1*
X13183Y7989D1*
X13089Y7908D1*
X12973Y7862D1*
X12922Y7861D1*
X12903Y7829D1*
X12809Y7748D1*
X12776Y7735D1*
X13214Y7734D1*
Y6771D1*
X12291Y6775D1*
X12339Y6771D1*
X11992D1*
X11943Y6689D1*
X11849Y6608D1*
X11733Y6562D1*
X11609Y6559D1*
X11490Y6597D1*
X11392Y6673D1*
X11339Y6754D1*
X11337Y6063D1*
X10591D1*
X10543Y5989D1*
X10449Y5908D1*
X10333Y5862D1*
X10251Y5860D1*
X10255Y5446D1*
X10330Y5396D1*
X10416Y5305D1*
X10438Y5269D1*
X10531Y5378D1*
X10630Y5453D1*
X10743Y5506D1*
X10864Y5535D1*
X10989Y5538D1*
X11112Y5515D1*
X11227Y5467D1*
X11330Y5396D1*
X11416Y5305D1*
X11438Y5269D1*
X11531Y5378D1*
X11630Y5453D1*
X11743Y5506D1*
X11864Y5535D1*
X11989Y5538D1*
X12112Y5515D1*
X12227Y5467D1*
X12330Y5396D1*
X12416Y5305D1*
X12438Y5269D1*
X12531Y5378D1*
X12630Y5453D1*
X12743Y5506D1*
X12864Y5535D1*
X12989Y5538D1*
X13112Y5515D1*
X13227Y5467D1*
X13330Y5396D1*
X13416Y5305D1*
X13438Y5269D1*
X13531Y5378D1*
X13627Y5451D1*
X13625Y5940D1*
X13649Y6062D1*
X13717Y6163D1*
X13891Y6337D1*
X13789Y6339D1*
X13670Y6377D1*
X13572Y6453D1*
X13504Y6557D1*
X13476Y6678D1*
X13490Y6802D1*
X13525Y6875D1*
Y7020D1*
X13555Y7152D1*
X13616Y7316D1*
Y7531D1*
X13579Y7533D1*
Y8397D1*
X7966Y11125D2*
Y10945D1*
X8093Y10863D1*
X8167Y10762D1*
X8186Y10699D1*
X8226Y10711D1*
X8430Y10922D1*
X8484Y11034D1*
X8570Y11118D1*
X8190Y11125D1*
X7967D1*
X8853Y12839D2*
X9484D1*
Y11916D1*
X9474Y11914D1*
X9663Y11725D1*
X9732Y11622D1*
X9755Y11502D1*
Y11460D1*
X9866Y11513D1*
X9990Y11524D1*
X10110Y11493D1*
X10139Y11473D1*
X10244Y11454D1*
X10333Y11541D1*
X10446Y11593D1*
X10570Y11604D1*
X10690Y11573D1*
X10790Y11505D1*
X10793Y11934D1*
X10596Y11935D1*
Y12275D1*
X8801Y14071D1*
X8763Y14009D1*
X8669Y13928D1*
X8553Y13882D1*
X8425Y13880D1*
X8445Y13760D1*
X8434Y13695D1*
X8763Y13363D1*
X8832Y13259D1*
X8855Y13140D1*
Y12837D1*
X7620Y12058D2*
X7673Y12053D1*
X7820Y12058D1*
X7854Y12059D1*
X7988Y12053D1*
X8046Y12059D1*
X8062Y12113D1*
X8052Y12245D1*
X8062Y12271D1*
X8052Y12403D1*
X8086Y12494D1*
X8000Y12511D1*
X7891Y12497D1*
X7842Y12511D1*
X7733Y12497D1*
X7685Y12511D1*
X7616Y12397D1*
X7618Y12359D1*
X7605Y12295D1*
X7618Y12202D1*
X7605Y12137D1*
X7617Y12064D1*
X14486Y11368D2*
Y10954D1*
X15000Y10441D1*
X15162Y10439D1*
X15165Y10733D1*
X14547Y11347D1*
X6966Y17485D2*
X7221D1*
X7217Y16864D1*
X7221Y16591D1*
X7217Y16470D1*
X7221Y16197D1*
X7217Y16077D1*
X7221Y16125D1*
Y15880D1*
X6455D1*
X6451Y15954D1*
X6333Y15992D1*
X6234Y16068D1*
X6194Y16130D1*
X6075Y16082D1*
X5951Y16079D1*
X5833Y16117D1*
X5734Y16193D1*
X5662Y16316D1*
X5543Y16313D1*
Y16981D1*
X5280Y16978D1*
X5277Y16958D1*
X4353D1*
Y17922D1*
X4779D1*
X4832Y18029D1*
X4921Y18116D1*
X5034Y18168D1*
X5157Y18179D1*
X5278Y18148D1*
X5381Y18078D1*
X5454Y17977D1*
X5478Y17899D1*
X5877Y17902D1*
X6547D1*
Y17757D1*
X6694Y17731D1*
X6795Y17663D1*
X6957Y17493D1*
X9366Y15353D2*
X8920D1*
X8904Y15277D1*
X8843Y15169D1*
X8749Y15088D1*
X8694Y15066D1*
X9084Y14679D1*
X9085Y14940D1*
X9109Y15062D1*
X9177Y15163D1*
X9368Y15353D1*
X10597Y18110D2*
X10905D1*
X10906Y18272D1*
X10882Y18343D1*
X10760Y18368D1*
X10645Y18418D1*
X10544Y18490D1*
X10441Y18612D1*
X10343Y18496D1*
X10217Y18411D1*
X10282Y18391D1*
X10383Y18323D1*
X10595Y18110D1*
X8552Y5395D2*
X8630Y5453D1*
X8743Y5506D1*
X8864Y5535D1*
X8989Y5538D1*
X9112Y5515D1*
X9227Y5467D1*
X9330Y5396D1*
X9416Y5305D1*
X9438Y5269D1*
X9531Y5378D1*
X9627Y5451D1*
X9625Y5733D1*
X9470Y5777D1*
X9372Y5853D1*
X9323Y5928D1*
X8922Y5923D1*
X8925Y5880D1*
X8904Y5757D1*
X8843Y5649D1*
X8749Y5568D1*
X8633Y5522D1*
X8590Y5521D1*
X8555Y5447D1*
X5626Y12537D2*
X5025D1*
Y12814D1*
X4726Y12812D1*
X4729Y12576D1*
X4326D1*
X4325Y9590D1*
X5088Y10353D1*
X5085Y11935D1*
X5076Y11998D1*
X5090Y12122D1*
X5144Y12234D1*
X5233Y12321D1*
X5346Y12373D1*
X5470Y12384D1*
X5590Y12353D1*
X5632Y12324D1*
X5616Y12418D1*
X5629Y12538D1*
X9612Y8437D2*
X9982Y8807D1*
X9920Y8805D1*
X9798Y8829D1*
X9697Y8897D1*
X9545Y9049D1*
X9553Y8963D1*
X9627Y8862D1*
X9662Y8743D1*
X9665Y8700D1*
X9644Y8577D1*
X9574Y8461D1*
D17*
X12440Y13192D3*
Y13940D3*
D18*
X13690Y11190D3*
Y12292D3*
D19*
X8753Y18128D3*
X8083D3*
D20*
X8980Y17025D3*
Y16355D3*
D19*
X14098Y7278D3*
X13428D3*
Y9653D3*
X14098D3*
X11877Y17565D3*
X12547D3*
D20*
X6690Y12378D3*
Y13047D3*
X8190Y7440D3*
Y8109D3*
D19*
X8065Y15565D3*
X7396D3*
D20*
X4690Y8127D3*
Y8797D3*
X19315Y10484D3*
Y9815D3*
X4815Y17440D3*
Y16771D3*
X12253Y7253D3*
Y6583D3*
X12752Y7253D3*
Y6583D3*
D19*
X16753Y18065D3*
X16083D3*
X11877D3*
X12547D3*
X11877Y17065D3*
X12547D3*
X16734Y17565D3*
X16065D3*
X11877Y16565D3*
X12547D3*
X11877Y16065D3*
X12547D3*
X9002Y12378D3*
X9672D3*
D20*
X19815Y9815D3*
Y10484D3*
D22*
Y7065D3*
Y7656D3*
X19190Y7065D3*
Y7656D3*
X18565Y7065D3*
Y7656D3*
X17940Y7065D3*
Y7656D3*
X17315Y7065D3*
Y7656D3*
X16690Y7065D3*
Y7656D3*
X16065Y7065D3*
Y7656D3*
D23*
X11378Y15440D3*
Y13900D3*
D25*
X14940Y8690D3*
Y7824D3*
Y9190D3*
Y10056D3*
D27*
X5940Y13815D3*
Y14071D3*
Y14327D3*
Y14583D3*
Y14839D3*
D28*
X5812Y13106D3*
Y15547D3*
D29*
X4887Y12713D3*
Y15941D3*
D30*
Y13992D3*
Y14661D3*
D31*
X6940Y18940D3*
D32*
X7940D3*
X8940D3*
X9940D3*
X10940D3*
X11940D3*
X12940D3*
X13940D3*
X14940D3*
X15940D3*
D31*
X6940Y4940D3*
D32*
X7940D3*
X8940D3*
X9940D3*
X10940D3*
X11940D3*
X12940D3*
X13940D3*
X14940D3*
X15940D3*
D33*
X9815Y17315D3*
X10670D3*
D35*
X11940Y11440D3*
X12688D3*
X12314Y12346D3*
D20*
X10502Y14315D3*
Y13646D3*
D19*
X10605Y11775D3*
X11275D3*
X5355Y16775D3*
X6025D3*
X8065Y17627D3*
X8734D3*
X9690Y15815D3*
X9021D3*
X6065Y17440D3*
X5396D3*
X7940Y14128D3*
X7271D3*
X10855Y6525D3*
X11525D3*
X7962Y14650D3*
X7293D3*
D20*
X19815Y8815D3*
Y8146D3*
X19190Y8815D3*
Y8146D3*
X18565Y8815D3*
Y8146D3*
X17940Y8815D3*
Y8146D3*
X17315Y8815D3*
Y8146D3*
X16690Y8815D3*
Y8146D3*
X16065Y8815D3*
Y8146D3*
X10503Y15065D3*
Y15734D3*
D19*
X10315Y6565D3*
X9646D3*
X6815Y11002D3*
X7484D3*
D36*
X5690Y9940D3*
X7304D3*
Y9080D3*
X5690D3*
Y7940D3*
X7304D3*
Y7080D3*
X5690D3*
D37*
X19940Y16690D3*
X19389D3*
X18838D3*
X18286D3*
X17735D3*
X17184D3*
X16633D3*
X16082D3*
D38*
X15139Y16060D3*
Y15509D3*
Y14958D3*
Y14407D3*
Y13855D3*
Y13304D3*
Y12753D3*
Y12202D3*
D37*
X16082Y11572D3*
X16633D3*
X17184D3*
X17735D3*
X18286D3*
X18838D3*
X19389D3*
X19940D3*
D39*
X12190Y7940D3*
Y8137D3*
Y8334D3*
Y8531D3*
Y8727D3*
Y8924D3*
Y9121D3*
Y9318D3*
Y9515D3*
Y9712D3*
Y9909D3*
Y10105D3*
D40*
X11599Y10696D3*
X11403D3*
X11206D3*
X11009D3*
X10812D3*
X10615D3*
X10418D3*
X10221D3*
X10025D3*
X9828D3*
X9631D3*
X9434D3*
D39*
X8844Y10105D3*
Y9909D3*
Y9712D3*
Y9515D3*
Y9318D3*
Y9121D3*
Y8924D3*
Y8727D3*
Y8531D3*
Y8334D3*
Y8137D3*
Y7940D3*
D40*
X9434Y7349D3*
X9631D3*
X9828D3*
X10025D3*
X10221D3*
X10418D3*
X10615D3*
X10812D3*
X11009D3*
X11206D3*
X11403D3*
X11599D3*
D41*
X10940Y12378D3*
X11196D3*
X11452D3*
Y13244D3*
X11196D3*
X10940D3*
D42*
X7940Y16190D3*
Y16387D3*
Y16584D3*
Y16781D3*
Y16977D3*
Y17174D3*
X6838D3*
Y16977D3*
Y16781D3*
Y16584D3*
Y16387D3*
Y16190D3*
D43*
X7389Y16682D3*
D45*
X7440Y11690D3*
X7597D3*
X7755D3*
X7912D3*
X8070D3*
X8227D3*
D46*
X8424Y11887D3*
Y12044D3*
Y12202D3*
Y12359D3*
Y12517D3*
Y12674D3*
D45*
X8227Y12871D3*
X8070D3*
X7912D3*
X7755D3*
X7597D3*
X7440D3*
D46*
X7243Y12674D3*
Y12517D3*
Y12359D3*
Y12202D3*
Y12044D3*
Y11887D3*
D47*
X7834Y12279D3*
D48*
X13440Y8940D3*
Y8074D3*
X14070D3*
Y8940D3*
M02*
