G04 DipTrace 2.4.0.2*
%INBottomSilk.gbr*%
%MOIN*%
%ADD10C,0.0098*%
%ADD26C,0.0094*%
%ADD44C,0.0154*%
%ADD100C,0.0077*%
%FSLAX44Y44*%
G04*
G70*
G90*
G75*
G01*
%LNBotSilk*%
%LPD*%
X5161Y6393D2*
D10*
Y5882D1*
X4807Y5197D2*
Y5827D1*
X4334Y5197D2*
Y5827D1*
D26*
X4571Y4827D3*
X4458Y8260D2*
D10*
Y8510D1*
Y8260D2*
X5958D1*
Y8510D1*
X4458Y9510D2*
Y9760D1*
X5958D1*
Y9510D1*
X12075Y10700D2*
X9575D1*
Y8200D1*
X12075D1*
Y10700D1*
Y10200D2*
X11575Y10700D1*
D44*
X14494Y10123D3*
X15321Y12247D2*
D100*
X15823D1*
Y12079D1*
X15799Y12007D1*
X15751Y11959D1*
X15703Y11936D1*
X15632Y11912D1*
X15512D1*
X15440Y11936D1*
X15393Y11959D1*
X15345Y12007D1*
X15321Y12079D1*
Y12247D1*
Y11757D2*
X15823Y11638D1*
X15321Y11518D1*
X15823Y11399D1*
X15321Y11279D1*
X15823Y10742D2*
X15321D1*
X15823Y10933D1*
X15321Y11124D1*
X15823D1*
X15417Y10588D2*
X15393Y10539D1*
X15321Y10468D1*
X15823D1*
X15321Y10170D2*
X15345Y10241D1*
X15417Y10289D1*
X15536Y10313D1*
X15608D1*
X15728Y10289D1*
X15799Y10241D1*
X15823Y10170D1*
Y10122D1*
X15799Y10050D1*
X15728Y10003D1*
X15608Y9978D1*
X15536D1*
X15417Y10003D1*
X15345Y10050D1*
X15321Y10122D1*
Y10170D1*
X15417Y10003D2*
X15728Y10289D1*
X15321Y9680D2*
X15345Y9752D1*
X15417Y9800D1*
X15536Y9824D1*
X15608D1*
X15728Y9800D1*
X15799Y9752D1*
X15823Y9680D1*
Y9633D1*
X15799Y9561D1*
X15728Y9513D1*
X15608Y9489D1*
X15536D1*
X15417Y9513D1*
X15345Y9561D1*
X15321Y9633D1*
Y9680D1*
X15417Y9513D2*
X15728Y9800D1*
X15321Y9191D2*
X15345Y9263D1*
X15417Y9311D1*
X15536Y9335D1*
X15608D1*
X15728Y9311D1*
X15799Y9263D1*
X15823Y9191D1*
Y9143D1*
X15799Y9072D1*
X15728Y9024D1*
X15608Y9000D1*
X15536D1*
X15417Y9024D1*
X15345Y9072D1*
X15321Y9143D1*
Y9191D1*
X15417Y9024D2*
X15728Y9311D1*
X15321Y8359D2*
X15823D1*
Y8192D1*
X15799Y8120D1*
X15751Y8072D1*
X15703Y8048D1*
X15632Y8024D1*
X15512D1*
X15440Y8048D1*
X15393Y8072D1*
X15345Y8120D1*
X15321Y8192D1*
Y8359D1*
X15632Y7870D2*
Y7583D1*
X15584D1*
X15536Y7607D1*
X15512Y7631D1*
X15488Y7679D1*
Y7751D1*
X15512Y7798D1*
X15560Y7846D1*
X15632Y7870D1*
X15679D1*
X15751Y7846D1*
X15799Y7798D1*
X15823Y7751D1*
Y7679D1*
X15799Y7631D1*
X15751Y7583D1*
X15560Y7141D2*
X15512Y7189D1*
X15488Y7237D1*
Y7309D1*
X15512Y7357D1*
X15560Y7404D1*
X15632Y7429D1*
X15679D1*
X15751Y7404D1*
X15799Y7357D1*
X15823Y7309D1*
Y7237D1*
X15799Y7189D1*
X15751Y7141D1*
X15321Y6987D2*
X15823D1*
X15488Y6748D2*
X15728Y6987D1*
X15632Y6891D2*
X15823Y6724D1*
X16320Y12267D2*
Y12052D1*
X16296Y11980D1*
X16272Y11956D1*
X16224Y11932D1*
X16176D1*
X16129Y11956D1*
X16104Y11980D1*
X16081Y12052D1*
Y12267D1*
X16583D1*
X16320Y12099D2*
X16583Y11932D1*
X16392Y11777D2*
Y11491D1*
X16344D1*
X16296Y11514D1*
X16272Y11538D1*
X16248Y11586D1*
Y11658D1*
X16272Y11706D1*
X16320Y11754D1*
X16392Y11777D1*
X16439D1*
X16511Y11754D1*
X16559Y11706D1*
X16583Y11658D1*
Y11586D1*
X16559Y11538D1*
X16511Y11491D1*
X16248Y11336D2*
X16583Y11193D1*
X16248Y11049D1*
X16583Y10026D2*
X16081Y10218D1*
X16583Y10409D1*
X16416Y10337D2*
Y10098D1*
M02*
