M48
INCH
T01C0.012
T02C0.0315
%
T01
X+007965Y+006715
X+008750Y+006690
X+009030Y+006450
X+008510Y+008170
X+008530Y+008450
X+008630Y+008770
X+008570Y+010210
X+007990Y+010930
X+007430Y+011070
X+006790Y+010510
X+006850Y+010050
X+006370Y+010710
X+006070Y+010710
X+005610Y+011437
X+005610Y+011850
X+004890Y+011570
X+007150Y+012290
X+007330Y+012910
X+007870Y+014290
X+008700Y+014290
X+009410Y+013170
X+009510Y+012650
X+009130Y+012190
X+008910Y+011730
X+010210Y+012670
X+011910Y+013070
X+012030Y+012800
X+012290Y+012690
X+013630Y+013090
X+014070Y+013890
X+014590Y+012950
X+014550Y+012670
X+014100Y+010380
X+013013Y+009763
X+013075Y+009075
X+012110Y+009410
X+011730Y+010150
X+011470Y+010210
X+011350Y+010710
X+010370Y+009210
X+010350Y+008390
X+010970Y+008190
X+011270Y+008210
X+011530Y+008250
X+011790Y+008330
X+011810Y+008630
X+013013Y+007700
X+013825Y+007575
X+014210Y+007630
X+012860Y+006230
X+013280Y+005890
X+013960Y+005490
X+007270Y+007090
X+006920Y+007210
X+006110Y+006550
X+005850Y+007130
X+005870Y+007390
X+005770Y+007630
X+006240Y+008740
X+006610Y+009100
X+006150Y+009500
X+006970Y+008390
X+004387Y+004637
X+005219Y+014369
X+006540Y+014290
T02
X+006700Y+013780
X+007480Y+013780
X+008270Y+013780
X+009060Y+013780
X+009840Y+013780
X+010630Y+013780
X+011420Y+013780
X+012200Y+013780
X+012990Y+013780
X+005910Y+013780
X+005910Y+005120
X+006700Y+005120
X+007480Y+005120
X+008270Y+005120
X+009060Y+005120
X+009840Y+005120
X+010630Y+005120
X+011420Y+005120
X+012200Y+005120
X+012990Y+005120
T00
M30
