G04 DipTrace 2.4.0.2*
%INTopMask.gbr*%
%MOIN*%
%ADD25R,0.0315X0.0315*%
%ADD56R,0.0686X0.0749*%
%ADD58O,0.03X0.0159*%
%ADD60O,0.0159X0.03*%
%ADD70R,0.1045X0.0474*%
%ADD72R,0.0474X0.1045*%
%ADD74R,0.0434X0.0474*%
%ADD78R,0.0493X0.0493*%
%ADD80C,0.0493*%
%ADD82R,0.0474X0.071*%
%ADD84R,0.0828X0.0552*%
%ADD86R,0.0828X0.071*%
%ADD88R,0.0867X0.0907*%
%ADD90R,0.0611X0.0237*%
%ADD94R,0.0474X0.0513*%
%ADD96R,0.0513X0.0474*%
%FSLAX44Y44*%
G04*
G70*
G90*
G75*
G01*
%LNTopMask*%
%LPD*%
D96*
X8075Y10615D3*
X7406D3*
D94*
X8620Y9200D3*
Y9869D3*
D96*
X7450Y8305D3*
X8119D3*
D25*
X5230Y5020D3*
Y5611D3*
X4848Y14127D3*
Y13537D3*
X4347Y14127D3*
Y13537D3*
X4370Y5015D3*
Y5605D3*
X4810Y5015D3*
Y5605D3*
X5300Y14110D3*
Y13519D3*
X4387Y4387D3*
X5254D3*
D90*
X5638Y8938D3*
Y9194D3*
Y9450D3*
Y9706D3*
Y9962D3*
D88*
X5510Y8230D3*
Y10670D3*
D86*
X4585Y7836D3*
Y11064D3*
D84*
Y9115D3*
Y9785D3*
D82*
X5910Y14410D3*
X6700Y13150D3*
X7480Y14410D3*
X8270Y13150D3*
X9060Y14410D3*
X9840Y13150D3*
X10630Y14410D3*
X11420Y13150D3*
X12200Y14410D3*
X12990Y13150D3*
D80*
X6700Y13780D3*
X7480D3*
X5910D3*
X8270D3*
X9060D3*
X9840D3*
X10630D3*
X11420D3*
X12200D3*
D78*
X12990D3*
D82*
X5910Y5750D3*
X6700Y4490D3*
X7480Y5750D3*
X8270Y4490D3*
X9060Y5750D3*
X9840Y4490D3*
X10630Y5750D3*
X11420Y4490D3*
X12200Y5750D3*
X12990Y4490D3*
D80*
X6700Y5120D3*
X7480D3*
X5910D3*
X8270D3*
X9060D3*
X9840D3*
X10630D3*
X11420D3*
X12200D3*
D78*
X12990D3*
D94*
X5330Y6820D3*
Y6151D3*
X4950Y12377D3*
Y13047D3*
X4387Y12377D3*
Y13047D3*
Y6825D3*
Y6156D3*
X4858Y6825D3*
Y6156D3*
X5430Y12390D3*
Y13059D3*
D74*
X8387Y11330D3*
X6773D3*
Y12190D3*
X8387D3*
Y6715D3*
X6773D3*
Y7575D3*
X8387D3*
D72*
X14512Y12009D3*
X13960D3*
X13409D3*
X12858D3*
X12307D3*
X11756D3*
X11205D3*
X10653D3*
D70*
X9711Y11379D3*
Y10828D3*
Y10277D3*
Y9726D3*
Y9174D3*
Y8623D3*
Y8072D3*
Y7521D3*
D72*
X10653Y6891D3*
X11205D3*
X11756D3*
X12307D3*
X12858D3*
X13409D3*
X13960D3*
X14512D3*
G36*
X13907Y5818D2*
X14144Y6056D1*
X14493Y5707D1*
X14256Y5469D1*
X13907Y5818D1*
G37*
G36*
X13378Y5289D2*
X13615Y5527D1*
X13964Y5178D1*
X13727Y4940D1*
X13378Y5289D1*
G37*
G36*
X14283Y4913D2*
X14520Y5151D1*
X14869Y4802D1*
X14631Y4565D1*
X14283Y4913D1*
G37*
D60*
X7086Y8861D3*
X7244D3*
X7401D3*
X7559D3*
X7716D3*
X7874D3*
D58*
X8071Y9058D3*
Y9215D3*
Y9373D3*
Y9530D3*
Y9688D3*
Y9845D3*
D60*
X7874Y10042D3*
X7716D3*
X7559D3*
X7401D3*
X7244D3*
X7086D3*
D58*
X6889Y9845D3*
Y9688D3*
Y9530D3*
Y9373D3*
Y9215D3*
Y9058D3*
D56*
X7480Y9450D3*
M02*
