G04 DipTrace 2.4.0.2*
%INTopSilk.gbr*%
%MOIN*%
%ADD10C,0.0098*%
%ADD15C,0.0079*%
%ADD17C,0.007*%
%ADD20C,0.018*%
%ADD26C,0.0094*%
%ADD28C,0.0197*%
%ADD44C,0.0154*%
%ADD45O,0.0154X0.0144*%
%FSLAX44Y44*%
G04*
G70*
G90*
G75*
G01*
%LNTopSilk*%
%LPD*%
G36*
X5407Y5315D2*
X5348D1*
Y5197D1*
X5407D1*
Y5315D1*
G37*
G36*
X5112D2*
X5053D1*
Y5197D1*
X5112D1*
Y5315D1*
G37*
G36*
X5289D2*
X5171D1*
Y5197D1*
X5289D1*
Y5315D1*
G37*
G36*
X4670Y13832D2*
X4729D1*
Y13950D1*
X4670D1*
Y13832D1*
G37*
G36*
X4966D2*
X5025D1*
Y13950D1*
X4966D1*
Y13832D1*
G37*
G36*
X4788D2*
X4907D1*
Y13950D1*
X4788D1*
Y13832D1*
G37*
G36*
X4170D2*
X4229D1*
Y13950D1*
X4170D1*
Y13832D1*
G37*
G36*
X4466D2*
X4525D1*
Y13950D1*
X4466D1*
Y13832D1*
G37*
G36*
X4288D2*
X4407D1*
Y13950D1*
X4288D1*
Y13832D1*
G37*
G36*
X4547Y5310D2*
X4488D1*
Y5192D1*
X4547D1*
Y5310D1*
G37*
G36*
X4252D2*
X4193D1*
Y5192D1*
X4252D1*
Y5310D1*
G37*
G36*
X4429D2*
X4311D1*
Y5192D1*
X4429D1*
Y5310D1*
G37*
G36*
X4987D2*
X4928D1*
Y5192D1*
X4987D1*
Y5310D1*
G37*
G36*
X4692D2*
X4633D1*
Y5192D1*
X4692D1*
Y5310D1*
G37*
G36*
X4869D2*
X4751D1*
Y5192D1*
X4869D1*
Y5310D1*
G37*
G36*
X5123Y13815D2*
X5182D1*
Y13933D1*
X5123D1*
Y13815D1*
G37*
G36*
X5418D2*
X5477D1*
Y13933D1*
X5418D1*
Y13815D1*
G37*
G36*
X5241D2*
X5359D1*
Y13933D1*
X5241D1*
Y13815D1*
G37*
X4506Y4624D2*
D10*
X5135D1*
X4506Y4151D2*
X5135D1*
D26*
X4135Y4387D3*
X4093Y7954D2*
D10*
X3739D1*
X3738Y10946D2*
X4093D1*
D28*
X6120Y8938D3*
X3739Y11045D2*
D10*
Y7855D1*
Y11045D2*
X3502D1*
X3739Y7855D2*
X3502D1*
Y11045D2*
Y7855D1*
X8830Y11010D2*
X6330D1*
Y12510D1*
X8830D1*
Y11010D1*
Y6395D2*
X6330D1*
Y7895D1*
X8830D1*
Y6395D1*
D44*
X14314Y6085D3*
X14604Y5665D2*
D10*
X13768Y4830D1*
X13908Y4691D1*
X14743Y5526D1*
X14604Y5665D1*
X6958Y8819D2*
X6840Y8924D1*
X8130Y8819D2*
Y8924D1*
Y8819D2*
X8012D1*
X8130Y10086D2*
X8012D1*
X8130D2*
Y9980D1*
X6840Y10086D2*
X6958D1*
X6840D2*
Y9980D1*
D45*
X7078Y8595D3*
X15230Y12870D2*
D17*
G02X15230Y12870I460J0D01*
G01*
X16170D2*
D15*
X16771D1*
X16571Y13069D2*
X16770Y12871D1*
X16571Y12671D2*
X16770Y12869D1*
D20*
X15700Y12860D3*
X5390Y12149D2*
D44*
X5820D1*
X5964Y12198D1*
X6012Y12246D1*
X6060Y12341D1*
Y12437D1*
X6012Y12532D1*
X5964Y12580D1*
X5820Y12628D1*
X5390D1*
Y11623D1*
X5725Y12149D2*
X6060Y11623D1*
X5290Y7108D2*
Y6103D1*
X5721D1*
X5865Y6152D1*
X5912Y6199D1*
X5960Y6294D1*
Y6438D1*
X5912Y6534D1*
X5865Y6582D1*
X5721Y6629D1*
X5865Y6678D1*
X5912Y6726D1*
X5960Y6821D1*
Y6917D1*
X5912Y7012D1*
X5865Y7060D1*
X5721Y7108D1*
X5290D1*
Y6629D2*
X5721D1*
M02*
