G04 DipTrace 2.4.0.2*
%INBottom.gbr*%
%MOIN*%
%ADD14C,0.01*%
%ADD15C,0.0079*%
%ADD17C,0.007*%
%ADD18C,0.0091*%
%ADD19C,0.025*%
%ADD21R,0.0512X0.0591*%
%ADD22R,0.0433X0.0394*%
%ADD23R,0.0394X0.0433*%
%ADD27R,0.0236X0.0236*%
%ADD34C,0.0413*%
%ADD35R,0.0413X0.0413*%
%ADD36R,0.039X0.106*%
%ADD40R,0.0472X0.0118*%
%ADD41R,0.0118X0.0472*%
%ADD42R,0.0236X0.0091*%
%ADD43R,0.0669X0.1299*%
%ADD49R,0.0453X0.0551*%
%ADD50C,0.02*%
%FSLAX44Y44*%
G04*
G70*
G90*
G75*
G01*
%LNBottom*%
%LPD*%
X11908Y11123D2*
D14*
X12043D1*
X12638Y11718D1*
X12498Y10533D2*
Y11579D1*
X12638Y11718D1*
X10638Y12392D2*
X11262D1*
X11263Y12972D2*
Y12392D1*
X9152Y10533D2*
Y10550D1*
X8189D1*
Y10415D1*
X10638Y12392D2*
Y12388D1*
X9950Y11700D1*
X9825D1*
X9513Y11387D1*
Y10893D1*
X9152Y10533D1*
X4550Y13575D2*
Y13057D1*
X4572Y13035D1*
Y12535D1*
X4550Y12513D1*
Y12012D1*
Y11250D1*
X4560D1*
Y10798D1*
X4568Y10790D1*
X7965Y6715D2*
X8510Y6170D1*
X9406D1*
Y6688D1*
X9428Y6710D1*
X9742Y7777D2*
Y7025D1*
X9428Y6710D1*
X12638Y11718D2*
X12718D1*
X13075Y12075D1*
Y12638D1*
X12643Y13070D1*
X11910D1*
Y13050D1*
X11921D1*
X11262Y12392D1*
X4568Y10790D2*
Y10268D1*
X4470Y10170D1*
Y8230D1*
X5190D1*
X5635Y8675D1*
Y9010D1*
Y8740D1*
X6240D1*
X7990Y10930D2*
Y10614D1*
X8189Y10415D1*
X12498Y8958D2*
X12022D1*
X11830Y9150D1*
Y9710D1*
X12130Y10010D1*
Y10470D1*
X12190Y10530D1*
X12496D1*
X12498Y10533D1*
X9406Y6170D2*
Y6114D1*
X9670Y5850D1*
X11960D1*
X12560Y5250D1*
Y4970D1*
X12750Y4780D1*
X13380D1*
X13960Y5360D1*
Y5490D1*
X14210Y7630D2*
Y7610D1*
X13930Y7330D1*
X13730D1*
X13610Y7450D1*
Y7730D1*
X13410Y7930D1*
X13230D1*
X13070Y8090D1*
Y8750D1*
X12870Y8950D1*
X12506D1*
X12498Y8958D1*
X5850Y7130D2*
X6840D1*
X6920Y7210D1*
X12575Y7933D2*
X12347D1*
X12090Y8190D1*
Y8350D1*
X11810Y8630D1*
X12498Y8564D2*
X12816D1*
X12910Y8470D1*
Y8035D1*
X12763Y7888D1*
X12620D1*
X12575Y7933D1*
X11120Y11123D2*
Y10640D1*
X11330Y10430D1*
X11790D1*
X11950Y10270D1*
Y10070D1*
X11670Y9790D1*
Y9043D1*
X12138Y8575D1*
X12487D1*
X12498Y8564D1*
X11908Y7777D2*
Y7072D1*
X12210Y6770D1*
X12690D1*
X13200Y6260D1*
Y5970D1*
X13280Y5890D1*
X10727Y7777D2*
Y8247D1*
X10910Y8430D1*
Y9330D1*
X11730Y10150D1*
X12575Y7263D2*
X12833D1*
X13013Y7443D1*
Y7700D1*
X14114Y8325D2*
Y7864D1*
X13825Y7575D1*
X13470Y9950D2*
Y9830D1*
X13950Y9350D1*
Y9234D1*
X14100Y9084D1*
Y8339D1*
X14114Y8325D1*
X13420Y10700D2*
Y10000D1*
X13470Y9950D1*
X11711Y11123D2*
Y11461D1*
X12638Y12388D1*
X9888Y12932D2*
X10552D1*
X10593Y12972D1*
X5219Y13575D2*
Y13057D1*
X5241Y13035D1*
Y12535D1*
X5219Y12513D1*
Y12012D1*
Y13575D2*
Y14369D1*
X10097Y6710D2*
Y6192D1*
X10075Y6170D1*
X9939Y7777D2*
Y6868D1*
X10097Y6710D1*
X12498Y9155D2*
X12995D1*
X13075Y9075D1*
X8570Y10210D2*
X8710Y10350D1*
X9166D1*
X9152Y10336D1*
X10350Y8390D2*
X10203D1*
X9950Y8137D1*
Y7788D1*
X9939Y7777D1*
X6323Y6137D2*
Y6337D1*
X6110Y6550D1*
X9152Y10336D2*
X9544D1*
X10590Y9290D1*
Y8650D1*
X10340Y8400D1*
X10350Y8390D1*
X13420Y10700D2*
X13530D1*
Y10830D1*
X14010Y11310D1*
Y13130D1*
X13830Y13310D1*
X10931D1*
X10593Y12972D1*
X9888Y12932D2*
X8789D1*
X8682Y12825D1*
Y12427D1*
X8580Y12325D1*
X5219Y13575D2*
X5450D1*
X5575Y13450D1*
X8057D1*
X8682Y12825D1*
X5219Y12012D2*
Y11899D1*
X4890Y11570D1*
X6399Y11535D2*
X6370D1*
Y10710D1*
X5970Y10310D1*
X5645D1*
X5637Y10317D1*
X11350Y10710D2*
X11650D1*
X11710Y10770D1*
Y11122D1*
X11711Y11123D1*
X10210Y12670D2*
Y12930D1*
X10551D1*
X12498Y10139D2*
X12819D1*
X12950Y10270D1*
Y11190D1*
X13630Y11870D1*
Y13090D1*
X14070Y13890D2*
X13670Y14290D1*
X8700D1*
X7870D2*
X6540D1*
X8510Y8170D2*
X7340D1*
X6802Y7632D1*
X6112D1*
X5870Y7390D1*
X5770Y7630D2*
X5940Y7800D1*
X6680D1*
X7268Y8388D1*
X8468D1*
X8530Y8450D1*
X8630Y8770D2*
Y9090D1*
X8890Y9350D1*
X9150D1*
X9152Y9352D1*
Y9942D2*
X8538D1*
X8528Y9952D1*
X8187D1*
X14089Y10700D2*
Y9961D1*
X14100Y9950D1*
X12498Y9745D2*
X12995D1*
X13013Y9763D1*
X14100Y10380D2*
Y9950D1*
X13470Y9084D2*
Y8351D1*
X13444Y8325D1*
X12498Y9548D2*
X13006D1*
X13470Y9084D1*
X5229Y11250D2*
Y10798D1*
X5237Y10790D1*
X5848Y11634D2*
D18*
Y11650D1*
D17*
X5440D1*
D14*
X5135Y11345D1*
X5229Y11250D1*
X4968Y10317D2*
Y10521D1*
X5237Y10790D1*
X6950Y11831D2*
D18*
X7456D1*
D14*
X7575Y11950D1*
Y12200D1*
X7700Y12325D1*
X7911D1*
X6950Y11634D2*
D18*
X7571D1*
D14*
X7762Y11825D1*
X7911D1*
X6950Y11240D2*
D18*
Y11250D1*
D14*
X7090D1*
X7270Y11070D1*
Y10930D1*
X7070Y10730D1*
X6690D1*
X6350Y10390D1*
X6310D1*
X5650Y9730D1*
X5250D1*
X4690Y9170D1*
Y8810D1*
X4780D1*
Y9010D1*
X7270Y11070D2*
X7430D1*
X8910Y11730D2*
X8485D1*
X8580Y11825D1*
X7911Y11325D2*
X7895D1*
X8230Y10990D1*
X9240D1*
X9325Y11075D1*
Y11700D1*
X9888Y12262D1*
X6950Y11437D2*
D18*
X7118D1*
D14*
X8023D1*
X7911Y11325D1*
X4571Y5079D2*
Y4821D1*
X4387Y4637D1*
X4571Y5079D2*
Y5389D1*
X4330Y5630D1*
Y7970D1*
X4220Y8080D1*
Y13840D1*
X4970Y14590D1*
X7970D1*
X8650Y13910D1*
Y13590D1*
X8854Y13386D1*
X9194D1*
X9410Y13170D1*
X9510Y12650D2*
Y12640D1*
X9888Y12262D1*
X6950Y12027D2*
D18*
X7387D1*
D14*
Y12512D1*
X7700Y12825D1*
X8013D1*
X5848Y11831D2*
D18*
Y11850D1*
Y12027D1*
Y11437D2*
X5680D1*
D14*
X5610D1*
Y11850D2*
X5848D1*
Y12027D2*
D18*
Y11983D1*
D14*
Y13098D1*
X6012Y13262D1*
X7575D1*
X8013Y12825D1*
X9152Y9745D2*
X8808D1*
X8637Y9575D1*
X8513D1*
X8388Y9450D1*
X12498Y9352D2*
X12168D1*
X12110Y9410D1*
X7330Y12910D2*
Y12870D1*
X7090Y12630D1*
Y12350D1*
X7150Y12290D1*
X7270Y7090D2*
Y5950D1*
X7550Y5670D1*
Y5190D1*
X7480Y5120D1*
X9152Y9155D2*
X10315D1*
X10370Y9210D1*
X10727Y11123D2*
Y11633D1*
X10638Y11723D1*
X6610Y9100D2*
D15*
Y9040D1*
X6750Y8900D1*
Y8560D1*
X6530Y8340D1*
X6070D1*
X5820Y8090D1*
X5550D1*
X5420Y7960D1*
Y7010D1*
X5670Y6760D1*
X6430D1*
X6750Y6440D1*
Y5560D1*
X7010Y5300D1*
Y4900D1*
X7600Y4310D1*
X13500D1*
X14930Y5740D1*
Y12610D1*
X14590Y12950D1*
X12030Y12800D2*
Y12460D1*
X11630Y12060D1*
X10975D1*
X10638Y11723D1*
X10333Y7777D2*
D14*
Y7467D1*
X10710Y7090D1*
Y6710D1*
X11130Y6290D1*
X12390D1*
X13030Y5650D1*
X13380D1*
X14450Y6720D1*
Y11890D1*
X14170Y12170D1*
Y13230D1*
X13930Y13470D1*
D15*
X10790D1*
D14*
X10690Y13370D1*
X10250D1*
X9840Y13780D1*
X10923Y11123D2*
Y11383D1*
X11262Y11722D1*
X6970Y8390D2*
D15*
X6890D1*
X6700Y8200D1*
X6130D1*
X5870Y7940D1*
X5670D1*
X5570Y7840D1*
Y7090D1*
X5730Y6930D1*
X6550D1*
X6950Y6530D1*
Y5610D1*
X7150Y5410D1*
Y5010D1*
X7660Y4500D1*
X13420D1*
X14770Y5850D1*
Y12450D1*
X14550Y12670D1*
X12290Y12690D2*
Y12310D1*
X11702Y11722D1*
X11262D1*
X10630Y13780D2*
D14*
X10820D1*
X11150Y14110D1*
X13530D1*
X14330Y13310D1*
Y12290D1*
X14610Y12010D1*
Y6630D1*
X13460Y5480D1*
X12890D1*
X12280Y6090D1*
X11070D1*
X10510Y6650D1*
Y6930D1*
X10136Y7304D1*
Y7777D1*
X5848Y11043D2*
D18*
Y10932D1*
D14*
X6070Y10710D1*
X9130Y12190D2*
Y11430D1*
X9010Y11310D1*
X8580D1*
Y11325D1*
X11514Y7777D2*
X11530D1*
Y8250D1*
X11790Y8330D2*
Y8130D1*
X11711Y8051D1*
Y7777D1*
X10923D2*
Y6789D1*
X11263Y6450D1*
X12640D1*
X12860Y6230D1*
X11317Y7777D2*
Y8163D1*
X11270Y8210D1*
X11120Y7777D2*
Y8040D1*
X10970Y8190D1*
X9152Y8564D2*
X8864D1*
X8750Y8450D1*
Y8070D1*
X8437Y7757D1*
X7777D1*
X7510Y7490D1*
Y5990D1*
X8010Y5490D1*
X11050D1*
X11420Y5120D1*
X9152Y8367D2*
Y8192D1*
X8530Y7570D1*
X7890D1*
X7730Y7410D1*
Y6090D1*
X8150Y5670D1*
X11650D1*
X12200Y5120D1*
X9152Y8761D2*
X9519D1*
X9670Y8610D1*
Y8430D1*
X9350Y8110D1*
Y7490D1*
X8750Y6890D1*
Y6690D1*
X9152Y8958D2*
X9602D1*
X9830Y8730D1*
Y8330D1*
X9510Y8010D1*
Y7390D1*
X9030Y6910D1*
Y6450D1*
X6850Y10050D2*
X7430Y9470D1*
X7718D1*
Y9450D1*
X7520Y10415D2*
Y9954D1*
X7518Y9952D1*
X6150Y9500D2*
Y9710D1*
X6710Y10270D1*
X7170D1*
X7488Y9952D1*
X7518D1*
X4571Y5946D2*
X5383D1*
X5575Y6137D1*
X6790Y10510D2*
X6710D1*
X5940Y9740D1*
Y9040D1*
X6010Y8970D1*
X6360D1*
X6490Y8840D1*
Y8630D1*
X6370Y8510D1*
X6020D1*
X5753Y8243D1*
X5473D1*
X5262Y8032D1*
Y6700D1*
X5575Y6387D1*
Y6137D1*
X11470Y10210D2*
Y10150D1*
X10750Y9430D1*
Y8510D1*
X10550Y8310D1*
Y7797D1*
X10530Y7777D1*
D50*
X7965Y6715D3*
X11910Y13070D3*
X6240Y8740D3*
X7990Y10930D3*
X13960Y5490D3*
X14210Y7630D3*
X5850Y7130D3*
X6920Y7210D3*
X11810Y8630D3*
X13280Y5890D3*
X11730Y10150D3*
X13013Y7700D3*
X13825Y7575D3*
X5219Y14369D3*
X13075Y9075D3*
X8570Y10210D3*
X10350Y8390D3*
X6110Y6550D3*
X10350Y8390D3*
X4890Y11570D3*
X6370Y10710D3*
X11350D3*
X10210Y12670D3*
X6110Y6550D3*
X13630Y13090D3*
X14070Y13890D3*
X8700Y14290D3*
X7870D3*
X6540D3*
X8510Y8170D3*
X5870Y7390D3*
X5770Y7630D3*
X8530Y8450D3*
X8630Y8770D3*
X13013Y9763D3*
X14100Y10380D3*
X7430Y11070D3*
X8910Y11730D3*
X4387Y4637D3*
X9410Y13170D3*
X9510Y12650D3*
X5610Y11437D3*
Y11850D3*
X12110Y9410D3*
X7330Y12910D3*
X7150Y12290D3*
X7270Y7090D3*
X10370Y9210D3*
X6610Y9100D3*
X14590Y12950D3*
X12030Y12800D3*
X6970Y8390D3*
X14550Y12670D3*
X12290Y12690D3*
X6070Y10710D3*
X9130Y12190D3*
X11530Y8250D3*
X11790Y8330D3*
X12860Y6230D3*
X11270Y8210D3*
X10970Y8190D3*
X8750Y6690D3*
X9030Y6450D3*
X6850Y10050D3*
X6150Y9500D3*
X6790Y10510D3*
X11470Y10210D3*
X14106Y14326D2*
D19*
X14716D1*
X4926Y14078D2*
X6220D1*
X14407D2*
X14716D1*
X5055Y13829D2*
X6204D1*
X14454D2*
X14716D1*
X5055Y13580D2*
X6247D1*
X14532D2*
X14716D1*
X5079Y13332D2*
X5611D1*
X7977D2*
X8101D1*
X5079Y13083D2*
X5509D1*
X8520D2*
X8743D1*
X9789D2*
X10095D1*
X5079Y12834D2*
X5509D1*
X6188D2*
X6825D1*
X8520D2*
X9169D1*
X9848D2*
X10150D1*
X5079Y12585D2*
X5509D1*
X6188D2*
X6751D1*
X8520D2*
X9126D1*
X5055Y12337D2*
X5439D1*
X6254D2*
X6540D1*
X8418D2*
X8771D1*
X5055Y12088D2*
X5310D1*
X6254D2*
X6540D1*
X5055Y11839D2*
X5162D1*
X6254D2*
X6540D1*
X6254Y11591D2*
X6540D1*
X13821D2*
X14111D1*
X6254Y11342D2*
X6540D1*
X13571D2*
X14111D1*
X6254Y11093D2*
X6540D1*
X13325D2*
X13583D1*
X13289Y10845D2*
X13583D1*
X9684Y10596D2*
X10782D1*
X13289D2*
X13583D1*
X9676Y10347D2*
X10943D1*
X13289D2*
X13583D1*
X9676Y10099D2*
X10946D1*
X13239D2*
X13583D1*
X9676Y9850D2*
X10700D1*
X13391D2*
X13583D1*
X6524Y9601D2*
X6829D1*
X9676D2*
X10462D1*
X6899Y9353D2*
X7075D1*
X13985D2*
X14111D1*
X7000Y9104D2*
X7212D1*
X11250D2*
X11330D1*
X13985D2*
X14111D1*
X7079Y8855D2*
X8251D1*
X11250D2*
X11393D1*
X13985D2*
X14111D1*
X10168Y8606D2*
X10376D1*
X11250D2*
X11421D1*
X13985D2*
X14111D1*
X13950Y8358D2*
X14111D1*
X13950Y8109D2*
X14111D1*
X4668Y7860D2*
X4923D1*
X4668Y7612D2*
X4923D1*
X13063D2*
X13259D1*
X4668Y7363D2*
X4923D1*
X12258D2*
X13282D1*
X4668Y7114D2*
X4923D1*
X8071D2*
X8505D1*
X11262D2*
X11568D1*
X12336D2*
X13474D1*
X4668Y6866D2*
X4923D1*
X8321D2*
X8403D1*
X11317D2*
X11646D1*
X13063D2*
X14111D1*
X4668Y6617D2*
X4935D1*
X9934D2*
X10173D1*
X13313D2*
X13876D1*
X4668Y6368D2*
X5029D1*
X6121D2*
X6364D1*
X9934D2*
X10321D1*
X13520D2*
X13627D1*
X6121Y6120D2*
X6419D1*
X6121Y5871D2*
X6419D1*
X6121Y5622D2*
X6419D1*
X4977Y5374D2*
X5489D1*
X4977Y5125D2*
X5415D1*
X4977Y4876D2*
X5482D1*
X14524D2*
X14716D1*
X4844Y4627D2*
X6825D1*
X14274D2*
X14716D1*
X4668Y4379D2*
X7075D1*
X14024D2*
X14716D1*
X6096Y6452D2*
Y5577D1*
X6022D1*
X6172Y5512D1*
X6266Y5429D1*
X6302Y5374D1*
X6384Y5470D1*
X6451Y5516D1*
X6445Y5685D1*
Y6314D1*
X6305Y6454D1*
X6098Y6455D1*
X5795Y5577D2*
X5054D1*
Y5628D1*
X4957Y5631D1*
X4954Y5562D1*
X4833D1*
X4866Y5498D1*
X4954Y5463D1*
Y4696D1*
X4858Y4692D1*
X4793Y4598D1*
X4741Y4545D1*
X4670Y4407D1*
X4573Y4324D1*
X7157Y4325D1*
X6814Y4663D1*
X6691Y4649D1*
X6567Y4668D1*
X6454Y4718D1*
X6357Y4797D1*
X6309Y4863D1*
X6240Y4783D1*
X6140Y4709D1*
X6024Y4663D1*
X5901Y4649D1*
X5777Y4668D1*
X5664Y4718D1*
X5567Y4797D1*
X5494Y4898D1*
X5450Y5015D1*
X5439Y5139D1*
X5460Y5262D1*
X5513Y5374D1*
X5594Y5470D1*
X5696Y5540D1*
X5803Y5578D1*
X5054Y6261D2*
Y6464D1*
X4971Y6581D1*
X4947Y6700D1*
Y7915D1*
X4647D1*
X4645Y6325D1*
X4954Y6329D1*
Y6262D1*
X5033Y11712D2*
X5042Y11708D1*
X5032Y11724D1*
Y11713D1*
X5089Y11744D1*
X5246Y11892D1*
X5260Y11952D1*
X5314Y12064D1*
X5403Y12151D1*
X5463Y12178D1*
X5465Y12338D1*
X5531D1*
X5533Y13098D1*
X5557Y13219D1*
X5625Y13320D1*
X5790Y13485D1*
X5893Y13554D1*
X6012Y13577D1*
X6274D1*
X6240Y13675D1*
X6229Y13799D1*
X6250Y13922D1*
X6295Y14017D1*
X6204Y14147D1*
X6176Y14272D1*
X5099Y14275D1*
X4864Y14039D1*
X5032Y14037D1*
Y13494D1*
X5054Y13496D1*
Y12573D1*
X5034D1*
X5032Y12051D1*
Y11724D1*
X8391Y12287D2*
X8780Y12292D1*
X8834Y12404D1*
X8923Y12491D1*
X9036Y12543D1*
X9156Y12553D1*
X9146Y12628D1*
X9160Y12752D1*
X9212Y12860D1*
X9142Y12923D1*
X9074Y13027D1*
X9064Y13069D1*
X8854Y13071D1*
X8732Y13096D1*
X8631Y13163D1*
X8450Y13344D1*
X8384Y13323D1*
X8261Y13309D1*
X8137Y13328D1*
X8024Y13378D1*
X7927Y13457D1*
X7879Y13523D1*
X7886Y13397D1*
X7994Y13289D1*
X8494Y13287D1*
Y12363D1*
X8389D1*
X8392Y12283D1*
X13926Y8541D2*
Y7863D1*
X13899D1*
X13905Y7839D1*
X14003Y7931D1*
X14135Y7984D1*
Y9411D1*
X13962Y9409D1*
X13961Y8543D1*
X13926D1*
X13733Y11162D2*
X14135D1*
Y11763D1*
X13945Y11950D1*
Y11870D1*
X13921Y11748D1*
X13853Y11647D1*
X13264Y11059D1*
X13265Y10270D1*
X13239Y10147D1*
X13266Y10025D1*
X13339Y9925D1*
X13375Y9806D1*
X13378Y9763D1*
X13357Y9644D1*
X13479Y9624D1*
X13608D1*
Y11162D1*
X13733D1*
X9909Y6746D2*
Y6249D1*
X9890D1*
X9920Y6165D1*
X10549D1*
X10287Y6427D1*
X10218Y6531D1*
X10195Y6650D1*
Y6802D1*
X10047Y6948D1*
X10033Y6903D1*
X9965Y6802D1*
X9907Y6744D1*
X10781Y12874D2*
Y13069D1*
X10690Y13055D1*
X10250D1*
X10128Y13079D1*
X10027Y13147D1*
X9864Y13310D1*
X9742Y13322D1*
X9772Y13213D1*
X9775Y13170D1*
X9754Y13047D1*
X9702Y12956D1*
X9763Y12913D1*
X9837Y12812D1*
X9858Y12742D1*
X10180Y12744D1*
X10176Y12873D1*
X10781D1*
X5450Y10330D2*
Y10041D1*
X5520Y10045D1*
X5877Y10403D1*
X5802Y10463D1*
X5734Y10567D1*
X5724Y10609D1*
X5719Y10328D1*
X5450D1*
X13037Y7684D2*
Y7451D1*
X12228D1*
X12232Y7276D1*
X12220D1*
X12307Y7118D1*
X12343Y7082D1*
X12690Y7085D1*
X12812Y7061D1*
X12913Y6993D1*
X13423Y6483D1*
X13492Y6379D1*
X13515Y6260D1*
Y6233D1*
X14138Y6853D1*
X14135Y7091D1*
X14049Y7038D1*
X13930Y7015D1*
X13730D1*
X13608Y7039D1*
X13507Y7107D1*
X13387Y7227D1*
X13323Y7320D1*
X13295Y7450D1*
Y7602D1*
X13098Y7645D1*
X8318Y8988D2*
X7906Y8992D1*
X7825Y8988D1*
X7237D1*
Y9219D1*
X6757Y9697D1*
X6680Y9727D1*
X6640Y9758D1*
X6499Y9614D1*
X6515Y9500D1*
X6506Y9450D1*
X6640Y9464D1*
X6760Y9433D1*
X6863Y9363D1*
X6937Y9262D1*
X6972Y9143D1*
X6975Y9107D1*
X7044Y8982D1*
X7055Y8900D1*
Y8748D1*
X7120Y8723D1*
X7175Y8685D1*
X7268Y8703D1*
X8264D1*
X8280Y8872D1*
X8315Y8945D1*
X8200Y8988D1*
X7950D1*
X11590Y7276D2*
X11584Y7279D1*
X11338Y7276D1*
X11237D1*
X11238Y6921D1*
X11392Y6766D1*
X11766Y6765D1*
X11685Y6850D1*
X11616Y6953D1*
X11593Y7072D1*
Y7279D1*
X11387Y7276D1*
X11319D1*
X10206Y8278D2*
X10233D1*
X10259Y8432D1*
X10327Y8533D1*
X10435Y8640D1*
Y8850D1*
X10190Y8840D1*
X10123D1*
X10145Y8730D1*
X10144Y8318D1*
X10187Y8278D1*
X10238D1*
X10235Y8318D1*
X10263Y8439D1*
X10327Y8533D1*
X10806Y10622D2*
X10599Y10626D1*
X10657Y10622D1*
X9812D1*
X9653Y10463D1*
X9649Y9815D1*
X9653Y9872D1*
Y9472D1*
X10117Y9470D1*
X10163Y9511D1*
X10276Y9563D1*
X10400Y9574D1*
X10464Y9557D1*
X10527Y9653D1*
X11094Y10219D1*
X10898Y10417D1*
X10825Y10531D1*
X10801Y10622D1*
X10403Y10626D1*
X10157Y10622D1*
X10009Y10626D1*
X9763Y10622D1*
X9812Y10626D1*
X9691Y10622D1*
X9653Y10587D1*
X9649Y10209D1*
X9653Y10266D1*
X9649Y9618D1*
X6567Y11127D2*
X6571Y11747D1*
X6567Y11842D1*
Y12338D1*
X6774D1*
X6775Y12630D1*
X6799Y12752D1*
X6867Y12853D1*
X6964Y12949D1*
X6165Y12947D1*
X6163Y12336D1*
X6231Y12338D1*
X6227Y11717D1*
X6231Y11444D1*
X6227Y11324D1*
X6231Y11039D1*
X6227Y11127D1*
X6231Y11229D1*
X6230Y11036D1*
X6323Y10973D1*
X6395Y10876D1*
X6476Y10960D1*
X6567Y11018D1*
X6571Y11354D1*
X6567Y11449D1*
X6571Y11944D1*
X8318Y6808D2*
X8389Y6736D1*
X8400Y6792D1*
X8435Y6865D1*
X8459Y7012D1*
X8527Y7113D1*
X9033Y7618D1*
X8933Y7527D1*
X8753Y7347D1*
X8649Y7278D1*
X8530Y7255D1*
X8042D1*
X8045Y7070D1*
X8115Y7048D1*
X8218Y6978D1*
X8292Y6877D1*
X8311Y6814D1*
X8435Y6898D1*
X8463Y7019D1*
X8527Y7113D1*
X11447Y8605D2*
X11460Y8732D1*
X11485Y8784D1*
X11447Y8820D1*
X11378Y8923D1*
X11355Y9043D1*
Y9328D1*
X11226Y9201D1*
X11225Y8568D1*
X11300Y8574D1*
X11341Y8563D1*
X11448Y8604D1*
X13981Y14424D2*
X14161Y14245D1*
X14220Y14223D1*
X14323Y14153D1*
X14397Y14052D1*
X14432Y13933D1*
X14435Y13890D1*
X14414Y13767D1*
X14378Y13703D1*
X14553Y13533D1*
X14625Y13419D1*
X14743Y13450D1*
Y14575D1*
X13801D1*
X13893Y14513D1*
X13981Y14424D1*
X14745Y5124D2*
X13950Y4325D1*
X14743D1*
Y5118D1*
D21*
X5575Y6137D3*
X6323D3*
D22*
X4560Y11250D3*
X5229D3*
X8580Y11825D3*
X7911D3*
X13444Y8325D3*
X14114D3*
X14089Y10700D3*
X13420D3*
X4550Y13575D3*
X5219D3*
X9406Y6170D3*
X10075D3*
X9428Y6710D3*
X10097D3*
X8013Y12825D3*
X8682D3*
D23*
X12638Y11718D3*
Y12388D3*
D22*
X10593Y12972D3*
X11263D3*
D23*
X9888Y12262D3*
Y12932D3*
D22*
X4572Y13035D3*
X5241D3*
X4550Y12513D3*
X5219D3*
X4550Y12012D3*
X5219D3*
D27*
X4571Y5079D3*
Y5946D3*
D34*
X6700Y13780D3*
X7480D3*
X5910D3*
X8270D3*
X9060D3*
X9840D3*
X10630D3*
X11420D3*
X12200D3*
D35*
X12990D3*
D34*
X6700Y5120D3*
X7480D3*
X5910D3*
X8270D3*
X9060D3*
X9840D3*
X10630D3*
X11420D3*
X12200D3*
D35*
X12990D3*
D36*
X4780Y9010D3*
X5635D3*
D22*
X5637Y10317D3*
X4968D3*
X5237Y10790D3*
X4568D3*
X8580Y12325D3*
X7911D3*
X8580Y11325D3*
X7911D3*
X8187Y9952D3*
X7518D3*
D23*
X12575Y7933D3*
Y7263D3*
D22*
X8388Y9450D3*
X7718D3*
X7520Y10415D3*
X8189D3*
D23*
X11262Y11722D3*
Y12392D3*
X10638Y11723D3*
Y12392D3*
D40*
X12498Y10533D3*
Y10336D3*
Y10139D3*
Y9942D3*
Y9745D3*
Y9548D3*
Y9352D3*
Y9155D3*
Y8958D3*
Y8761D3*
Y8564D3*
Y8367D3*
D41*
X11908Y7777D3*
X11711D3*
X11514D3*
X11317D3*
X11120D3*
X10923D3*
X10727D3*
X10530D3*
X10333D3*
X10136D3*
X9939D3*
X9742D3*
D40*
X9152Y8367D3*
Y8564D3*
Y8761D3*
Y8958D3*
Y9155D3*
Y9352D3*
Y9548D3*
Y9745D3*
Y9942D3*
Y10139D3*
Y10336D3*
Y10533D3*
D41*
X9742Y11123D3*
X9939D3*
X10136D3*
X10333D3*
X10530D3*
X10727D3*
X10923D3*
X11120D3*
X11317D3*
X11514D3*
X11711D3*
X11908D3*
D42*
X6950Y12027D3*
Y11831D3*
Y11634D3*
Y11437D3*
Y11240D3*
Y11043D3*
X5848D3*
Y11240D3*
Y11437D3*
Y11634D3*
Y11831D3*
Y12027D3*
D43*
X6399Y11535D3*
D49*
X14100Y9950D3*
Y9084D3*
X13470D3*
Y9950D3*
M02*
