G04 DipTrace 2.4.0.2*
%INTop.gbr*%
%MOIN*%
%ADD14C,0.01*%
%ADD15C,0.0079*%
%ADD16C,0.006*%
%ADD17C,0.007*%
%ADD19C,0.025*%
%ADD22R,0.0433X0.0394*%
%ADD23R,0.0394X0.0433*%
%ADD25R,0.0315X0.0315*%
%ADD27R,0.0236X0.0236*%
%ADD29R,0.0531X0.0157*%
%ADD30R,0.0787X0.0827*%
%ADD31R,0.0748X0.063*%
%ADD32R,0.0748X0.0472*%
%ADD33R,0.0394X0.063*%
%ADD34C,0.0413*%
%ADD35R,0.0413X0.0413*%
%ADD37R,0.0354X0.0394*%
%ADD38R,0.0394X0.0965*%
%ADD39R,0.0965X0.0394*%
%ADD46O,0.0079X0.022*%
%ADD47O,0.022X0.0079*%
%ADD48R,0.0606X0.0669*%
%ADD50C,0.02*%
%FSLAX44Y44*%
G04*
G70*
G90*
G75*
G01*
%LNTop*%
%LPD*%
X6773Y6715D2*
D14*
X8387D1*
X7965D1*
X7086Y8861D2*
D15*
Y8714D1*
D14*
X7266Y8534D1*
Y8597D1*
Y8489D1*
X7450Y8305D1*
X6889Y9373D2*
D15*
Y9390D1*
X6590D1*
X6240Y9040D1*
Y8740D1*
X6350Y8630D1*
Y7930D1*
X7075D1*
X7450Y8305D1*
X8071Y9373D2*
Y9215D1*
X6773Y6715D2*
D14*
Y6815D1*
X6388Y7200D1*
Y7968D1*
X6350Y7930D1*
X11205Y12009D2*
X11756D1*
X12307D1*
X11756D2*
Y12916D1*
X11910Y13070D1*
X7874Y10042D2*
D15*
Y10194D1*
D14*
X8054Y10374D1*
Y10594D1*
X8075Y10615D1*
Y10845D1*
X7990Y10930D1*
X8071Y9215D2*
D15*
X8225D1*
D14*
X8310Y9130D1*
Y8770D1*
X8170Y8630D1*
X7299D1*
X7266Y8597D1*
X13960Y5490D2*
X14130Y5320D1*
Y4850D1*
X14470Y4510D1*
X14750D1*
X14930Y4690D1*
Y5070D1*
X14850Y5150D1*
Y7490D1*
X14670Y7670D1*
X14250D1*
X14210Y7630D1*
X5330Y6820D2*
X5540D1*
X5850Y7130D1*
X6920Y7210D2*
Y6862D1*
X6773Y6715D1*
Y7575D2*
X8387D1*
X11810Y8630D2*
X10750D1*
X10570Y8450D1*
Y7758D1*
X10325Y7513D1*
Y7225D1*
X10175Y7075D1*
X8887D1*
X8387Y7575D1*
X12990Y5120D2*
Y4490D1*
X13280Y5890D2*
Y5410D1*
X12990Y5120D1*
X11730Y10150D2*
X13130D1*
X14510Y11530D1*
Y12007D1*
X14512Y12009D1*
X4347Y14127D2*
X4848D1*
X5910Y14410D2*
X5260D1*
X5219Y14369D1*
X4977Y14127D1*
X4848D1*
X14576Y4858D2*
X14550D1*
Y6853D1*
X14512Y6891D1*
X13960D1*
X12858D2*
Y7546D1*
X13013Y7700D1*
X13138Y7825D1*
X13363D1*
X13575D1*
X13825Y7575D1*
X13887Y7513D1*
Y6964D1*
X13960Y6891D1*
X13075Y9075D2*
Y8113D1*
X13363Y7825D1*
X6773Y11330D2*
X7273Y10830D1*
X7630D1*
X7725Y10925D1*
Y10985D1*
X7890Y11150D1*
X8387D1*
Y11330D1*
X7406Y10615D2*
Y10697D1*
X6773Y11330D1*
X7086Y10042D2*
D16*
Y10206D1*
D14*
X7266Y10386D1*
Y10476D1*
X7406Y10615D1*
X6889Y9688D2*
D15*
X7229D1*
D14*
X7242D1*
X7480Y9450D1*
X7086Y10042D2*
D17*
Y9934D1*
X7480Y9540D1*
Y9450D1*
X8071Y9688D2*
D15*
X8091D1*
D14*
X7718D1*
X7480Y9450D1*
X8071Y9688D2*
D15*
X8368D1*
D14*
X8438D1*
X8620Y9869D1*
X8570D1*
Y10210D1*
X8119Y8305D2*
X8130D1*
Y8070D1*
X8259Y7941D1*
X8559D1*
X8987Y7513D1*
X9703D1*
X9711Y7521D1*
X10021D1*
X10350Y7850D1*
Y8390D1*
X4585Y7836D2*
X5117D1*
X5510Y8230D1*
X5638Y8938D2*
Y8357D1*
X5510Y8230D1*
Y10670D2*
X4979D1*
X4585Y11064D1*
X6110Y6550D2*
Y7630D1*
X5510Y8230D1*
X4810Y5015D2*
X4890D1*
X6889Y9688D2*
X6430D1*
Y9470D1*
X5910Y8950D1*
X5650D1*
X5638Y8938D1*
X4890Y11570D2*
Y11369D1*
X4585Y11064D1*
X5510Y10670D2*
Y10640D1*
X5820Y10330D1*
X6150D1*
X6530Y10710D1*
X6370D1*
X6530D2*
Y10730D1*
X7521D1*
X7406Y10615D1*
X10653Y12009D2*
Y11487D1*
X10790Y11350D1*
X11130D1*
X11350Y11130D1*
Y10710D1*
X10653Y12009D2*
Y12227D1*
X10210Y12670D1*
X5910Y13780D2*
Y14410D1*
X4370Y5015D2*
X4810D1*
X5230Y5020D1*
Y5010D1*
X5500Y4740D1*
X6100D1*
X6350Y4990D1*
Y6280D1*
X6110Y6520D1*
Y6550D1*
X4848Y14127D2*
X5283D1*
X5300Y14110D1*
X8270Y13780D2*
Y13150D1*
X7480Y13780D2*
Y14410D1*
X6700Y13780D2*
Y13150D1*
X13630Y13090D2*
X13610D1*
Y13430D1*
X14070Y13890D1*
X8700Y14290D2*
Y14350D1*
X8550D1*
X8450Y14450D1*
X8030D1*
X7870Y14290D1*
X6540D2*
X6260Y14010D1*
Y13210D1*
X5440Y12390D1*
X5430D1*
X9711Y9174D2*
X9163D1*
X9110Y9228D1*
Y11630D1*
X9410Y11930D1*
Y12210D1*
X9090Y12530D1*
X6530D1*
X6440Y12440D1*
Y11920D1*
X5740Y11220D1*
X5400D1*
X5220Y11400D1*
Y11560D1*
X5000Y11780D1*
X4470D1*
X4387Y11863D1*
Y12377D1*
X9711Y8072D2*
Y8170D1*
X8510D1*
X5870Y7390D2*
X5270D1*
X4870Y6990D1*
Y6825D1*
X4858D1*
X4387D2*
Y7047D1*
X4613Y7273D1*
X4893D1*
X5250Y7630D1*
X5770D1*
X8530Y8450D2*
X9538D1*
X9711Y8623D1*
X4950Y12377D2*
Y12200D1*
X5090Y12060D1*
X5830D1*
X6460Y12690D1*
X9170D1*
X9660Y12200D1*
X9887D1*
X10325Y11762D1*
Y9825D1*
X10263Y9763D1*
X9748D1*
X9711Y9726D1*
X8071Y9845D2*
D15*
Y9935D1*
D14*
Y9951D1*
X8350Y10230D1*
Y10310D1*
X8510Y10470D1*
X8750D1*
X8950Y10270D1*
Y8890D1*
X8810Y8750D1*
X8650D1*
X8630Y8770D1*
X9060Y5120D2*
Y5750D1*
Y13780D2*
Y14410D1*
X13013Y9763D2*
X13483D1*
X14100Y10380D1*
X5330Y6151D2*
Y5711D1*
X5230Y5611D1*
X4848Y13537D2*
Y13149D1*
X4950Y13047D1*
X4347Y13537D2*
Y13047D1*
X4387D1*
X4370Y5605D2*
Y6138D1*
X4387Y6156D1*
X4858D2*
Y5653D1*
X4810Y5605D1*
X5300Y13519D2*
Y13189D1*
X5430Y13059D1*
X8071Y9530D2*
D15*
X8330D1*
D14*
X8620Y9240D1*
Y9200D1*
X7430Y11070D2*
X7490D1*
X8110Y11690D1*
X8870D1*
X8910Y11730D1*
X4387Y4637D2*
Y4387D1*
X9410Y13170D2*
Y12750D1*
X9510Y12650D1*
X5610Y11437D2*
Y11850D1*
X12990Y13780D2*
Y13150D1*
X8387Y12190D2*
Y12290D1*
X7150D1*
Y12190D1*
X6773D1*
X12110Y9410D2*
Y9590D1*
X12510Y9990D1*
X13230D1*
X14222Y10982D1*
X14482D1*
X14850Y11350D1*
Y12990D1*
X14610Y13230D1*
X14070D1*
X13730Y12890D1*
D15*
X13490D1*
D14*
X13370Y13010D1*
Y14010D1*
X13210Y14170D1*
X12750D1*
X12570Y13990D1*
Y13570D1*
X12410Y13410D1*
X11990D1*
X11790Y13610D1*
Y13950D1*
X11570Y14170D1*
X11210D1*
X11010Y13970D1*
Y13570D1*
X10790Y13350D1*
X10470D1*
X10210Y13610D1*
Y13970D1*
X9990Y14190D1*
X9630D1*
X9450Y14010D1*
Y13510D1*
X9230Y13290D1*
X8870D1*
X8670Y13490D1*
Y13990D1*
X8470Y14190D1*
X8070D1*
X7910Y14030D1*
Y13490D1*
X7330Y12910D1*
X7480Y5750D2*
X7490D1*
X14200Y5763D2*
X13812Y6150D1*
X13210D1*
X13080Y6020D1*
X12680D1*
X12438Y6262D1*
X10398D1*
X9770Y6890D1*
X8830D1*
X8630Y7090D1*
X7270D1*
X7480Y5120D2*
Y5750D1*
X10370Y9210D2*
Y9410D1*
X11550Y10590D1*
X12910D1*
X13410Y11090D1*
Y12008D1*
X13409Y12009D1*
X12200Y13780D2*
Y14410D1*
X6889Y9215D2*
D15*
X6725D1*
X6610Y9100D1*
X14590Y12950D2*
D17*
X14030D1*
X13820Y12740D1*
X12610D1*
X12430Y12920D1*
D15*
X12150D1*
X12030Y12800D1*
X9840Y13150D2*
D14*
Y13780D1*
X6889Y9058D2*
D15*
Y8471D1*
X6970Y8390D1*
X14550Y12670D2*
D17*
X14490Y12610D1*
X12490D1*
X12410Y12690D1*
D15*
X12290D1*
X10630Y14410D2*
D14*
Y13780D1*
X6070Y10710D2*
Y11257D1*
X6683Y11870D1*
X8650D1*
X8763Y11983D1*
X8923D1*
X9130Y12190D1*
X11530Y8250D2*
X12290Y7490D1*
Y6908D1*
X12307Y6891D1*
X10653D2*
Y7573D1*
X10750Y7670D1*
Y8350D1*
X10870Y8470D1*
X11650D1*
X11790Y8330D1*
X12860Y6230D2*
X13050D1*
X13390Y6570D1*
Y6910D1*
X13409Y6891D1*
X11270Y8210D2*
Y7990D1*
X11750Y7510D1*
Y6897D1*
X11756Y6891D1*
X10970Y8190D2*
Y7810D1*
X11230Y7550D1*
Y6916D1*
X11205Y6891D1*
X11420Y4490D2*
Y5120D1*
X12200D2*
Y5750D1*
X8750Y6690D2*
X9290D1*
X10250Y5730D1*
X10610D1*
X10630Y5750D1*
Y5120D2*
Y5750D1*
X9030Y6450D2*
X9130D1*
X9830Y5750D1*
Y5130D1*
X9840Y5120D1*
Y4490D2*
Y5120D1*
X11420Y13780D2*
Y13150D1*
X5638Y9706D2*
Y9730D1*
X6070D1*
X6390Y10050D1*
X6850D1*
X5638Y9450D2*
Y9500D1*
X6150D1*
X6700Y4490D2*
X5356D1*
X5254Y4387D1*
X6700Y5120D2*
Y4490D1*
X5638Y9962D2*
X6042D1*
X6590Y10510D1*
X6790D1*
X5910Y5750D2*
Y5120D1*
X13960Y12009D2*
Y11340D1*
X13010Y10390D1*
X11650D1*
X11470Y10210D1*
X8270Y5120D2*
Y4490D1*
D50*
X7965Y6715D3*
X11910Y13070D3*
X6240Y8740D3*
X7990Y10930D3*
X13960Y5490D3*
X14210Y7630D3*
X5850Y7130D3*
X6920Y7210D3*
X11810Y8630D3*
X13280Y5890D3*
X11730Y10150D3*
X13013Y7700D3*
X13825Y7575D3*
X5219Y14369D3*
X13075Y9075D3*
X8570Y10210D3*
X10350Y8390D3*
X6110Y6550D3*
X10350Y8390D3*
X4890Y11570D3*
X6370Y10710D3*
X11350D3*
X10210Y12670D3*
X6110Y6550D3*
X13630Y13090D3*
X14070Y13890D3*
X8700Y14290D3*
X7870D3*
X6540D3*
X8510Y8170D3*
X5870Y7390D3*
X5770Y7630D3*
X8530Y8450D3*
X8630Y8770D3*
X13013Y9763D3*
X14100Y10380D3*
X7430Y11070D3*
X8910Y11730D3*
X4387Y4637D3*
X9410Y13170D3*
X9510Y12650D3*
X5610Y11437D3*
Y11850D3*
X12110Y9410D3*
X7330Y12910D3*
X7150Y12290D3*
X7270Y7090D3*
X10370Y9210D3*
X6610Y9100D3*
X14590Y12950D3*
X12030Y12800D3*
X6970Y8390D3*
X14550Y12670D3*
X12290Y12690D3*
X6070Y10710D3*
X9130Y12190D3*
X11530Y8250D3*
X11790Y8330D3*
X12860Y6230D3*
X11270Y8210D3*
X10970Y8190D3*
X8750Y6690D3*
X9030Y6450D3*
X6850Y10050D3*
X6150Y9500D3*
X6790Y10510D3*
X11470Y10210D3*
X4350Y14326D2*
D19*
X6107D1*
X13524D2*
X14716D1*
X4350Y14078D2*
X5927D1*
X14407D2*
X14716D1*
X5746Y13829D2*
X5921D1*
X14454D2*
X14716D1*
X5746Y13580D2*
X5921D1*
X14289D2*
X14716D1*
X10329Y12834D2*
X10935D1*
X10329Y12585D2*
X10716D1*
X10219Y12337D2*
X10716D1*
X10469Y12088D2*
X10716D1*
X4350Y11342D2*
X4884D1*
X6625D2*
X7161D1*
X8231D2*
X8771D1*
X4473Y11093D2*
X4700D1*
X6411D2*
X7040D1*
X8340D2*
X8771D1*
X10664D2*
X12943D1*
X5375Y10845D2*
X5704D1*
X6434D2*
X6618D1*
X6961D2*
X7118D1*
X8582D2*
X8771D1*
X10664D2*
X11341D1*
X5375Y10596D2*
X5696D1*
X7168D2*
X7568D1*
X10664D2*
X11087D1*
X14418D2*
X14716D1*
X5633Y10347D2*
X5958D1*
X10664D2*
X10837D1*
X14489D2*
X14716D1*
X14356Y10099D2*
X14716D1*
X11282Y9850D2*
X11386D1*
X14039D2*
X14716D1*
X7282Y9601D2*
X7681D1*
X11032D2*
X11771D1*
X13793D2*
X14716D1*
X7289Y9353D2*
X7673D1*
X10782D2*
X11724D1*
X12496D2*
X14716D1*
X10743Y9104D2*
X11888D1*
X12332D2*
X14716D1*
X12121Y8855D2*
X14716D1*
X5633Y8606D2*
X5876D1*
X12200D2*
X14716D1*
X5375Y8358D2*
X6021D1*
X12180D2*
X14716D1*
X5375Y8109D2*
X6021D1*
X7957D2*
X8126D1*
X12141D2*
X14716D1*
X4454Y7860D2*
X4700D1*
X12391D2*
X13904D1*
X4350Y7612D2*
X4763D1*
X8856D2*
X8939D1*
X12793D2*
X12922D1*
X12793Y7363D2*
X12922D1*
X12793Y7114D2*
X12922D1*
X13895D2*
X14509D1*
X6125Y6866D2*
X6254D1*
X12793D2*
X12922D1*
X13895D2*
X14509D1*
X5817Y6617D2*
X6306D1*
X12793D2*
X12922D1*
X13895D2*
X14509D1*
X5817Y6368D2*
X6306D1*
X7239D2*
X7825D1*
X14063D2*
X14509D1*
X6395Y6120D2*
X6993D1*
X7965D2*
X8571D1*
X14422D2*
X14508D1*
X6395Y5871D2*
X6993D1*
X7965D2*
X8571D1*
X11118D2*
X11712D1*
X6395Y5622D2*
X6993D1*
X7965D2*
X8571D1*
X11118D2*
X11712D1*
X4350Y5125D2*
X5415D1*
X4688Y4876D2*
X5482D1*
X7188Y4627D2*
X7782D1*
X8758D2*
X9353D1*
X10329D2*
X10935D1*
X11907D2*
X12505D1*
X13477D2*
X13884D1*
X7188Y4379D2*
X7782D1*
X8758D2*
X9353D1*
X10329D2*
X10935D1*
X11907D2*
X12505D1*
X13477D2*
X14130D1*
X8324Y11077D2*
X8557D1*
Y10784D1*
X8762D1*
X8795Y10853D1*
Y11372D1*
X8241Y11375D1*
X8131Y11266D1*
X8243Y11193D1*
X8322Y11074D1*
X7593Y10415D2*
Y10743D1*
X7503Y10712D1*
X7379Y10709D1*
X7260Y10747D1*
X7162Y10823D1*
X7094Y10927D1*
X7066Y11048D1*
X7080Y11172D1*
X7134Y11284D1*
X7223Y11371D1*
X7336Y11423D1*
X7402Y11429D1*
X7525Y11555D1*
X6810D1*
X6383Y11125D1*
X6385Y10894D1*
X6425Y10779D1*
X6471Y10802D1*
X6590Y10825D1*
X6610D1*
X6696Y10863D1*
X6820Y10874D1*
X6940Y10843D1*
X7043Y10773D1*
X7117Y10672D1*
X7152Y10553D1*
X7155Y10510D1*
X7136Y10399D1*
X7185Y10411D1*
X7320Y10405D1*
X7466Y10410D1*
X7500Y10411D1*
X7597Y10410D1*
X7932Y8318D2*
Y7890D1*
X7945Y8037D1*
X8168D1*
X8146Y8148D1*
X8160Y8272D1*
X8182Y8317D1*
X7932Y8315D1*
X4550Y13959D2*
X5270D1*
Y13940D1*
X5722Y13942D1*
Y13540D1*
X5892Y13541D1*
Y13287D1*
X5944Y13339D1*
X5945Y14010D1*
X5969Y14132D1*
X6037Y14233D1*
X6190Y14392D1*
X6244Y14504D1*
X6319Y14577D1*
X4325Y14575D1*
Y13962D1*
X4770Y13959D1*
Y13956D1*
X4792Y5186D2*
X4328Y5183D1*
X4388Y5187D1*
X4325Y5075D1*
Y5001D1*
X4417D1*
X4538Y4970D1*
X4641Y4900D1*
X4714Y4800D1*
X4722Y4774D1*
X4771Y4771D1*
Y4321D1*
X4868Y4325D1*
X4871Y4771D1*
X5210D1*
X5356Y4805D1*
X5563D1*
X5494Y4898D1*
X5450Y5015D1*
X5439Y5139D1*
X5448Y5189D1*
X5232Y5183D1*
X4388D1*
X5892Y8850D2*
X5608Y8848D1*
Y8407D1*
X5354D1*
X5352Y7947D1*
X5582Y7945D1*
X5676Y7983D1*
X5800Y7994D1*
X5920Y7963D1*
X6023Y7893D1*
X6039Y7871D1*
X6037Y7966D1*
X6045Y8055D1*
Y8434D1*
X5972Y8493D1*
X5904Y8597D1*
X5876Y8718D1*
X5895Y8852D1*
X5611Y10306D2*
X5940D1*
X5900Y10387D1*
X5802Y10463D1*
X5734Y10567D1*
X5706Y10688D1*
X5720Y10812D1*
X5755Y10885D1*
X5740Y10905D1*
X5388Y10906D1*
X5352Y10826D1*
Y10471D1*
X5608Y10473D1*
Y10305D1*
X10302Y13085D2*
Y12570D1*
X9868D1*
X9848Y12517D1*
X10009Y12491D1*
X10110Y12423D1*
X10548Y11985D1*
X10617Y11882D1*
X10640Y11762D1*
Y10126D1*
X11327Y10813D1*
X11431Y10882D1*
X11550Y10905D1*
X12780D1*
X13093Y11219D1*
X13070Y11262D1*
X12396Y11266D1*
X12144Y11262D1*
X11845Y11266D1*
X11593Y11262D1*
X11294Y11266D1*
X11041Y11262D1*
X10743D1*
Y12756D1*
X10958D1*
Y13082D1*
X10909Y13058D1*
X10790Y13035D1*
X10470D1*
X10338Y13065D1*
X12662Y14572D2*
Y14470D1*
X12750Y14485D1*
X13210D1*
X13332Y14461D1*
X13433Y14393D1*
X13593Y14233D1*
X13662Y14129D1*
X13685Y14010D1*
Y13951D1*
X13720Y13992D1*
X13774Y14104D1*
X13863Y14191D1*
X13976Y14243D1*
X14100Y14254D1*
X14220Y14223D1*
X14323Y14153D1*
X14397Y14052D1*
X14432Y13933D1*
X14435Y13890D1*
X14414Y13767D1*
X14353Y13659D1*
X14259Y13578D1*
X14175Y13545D1*
X14610D1*
X14742Y13515D1*
X14743Y14575D1*
X12661D1*
X12756Y14484D1*
X6372Y6256D2*
Y5459D1*
X6486Y5540D1*
X6604Y5582D1*
X6728Y5591D1*
X6850Y5567D1*
X6962Y5512D1*
X7018Y5463D1*
Y6252D1*
X6375Y6253D1*
X7162Y4769D2*
Y4324D1*
X7805Y4325D1*
X7808Y4781D1*
X7710Y4709D1*
X7594Y4663D1*
X7471Y4649D1*
X7347Y4668D1*
X7234Y4718D1*
X7164Y4775D1*
X7217Y6330D2*
X7942D1*
Y5459D1*
X8056Y5540D1*
X8174Y5582D1*
X8298Y5591D1*
X8420Y5567D1*
X8532Y5512D1*
X8599Y5453D1*
X8598Y6252D1*
X7945Y6253D1*
Y6351D1*
X7795Y6392D1*
X7762Y6400D1*
X7211D1*
X8732Y4785D2*
Y4324D1*
X9376Y4325D1*
X9378Y4773D1*
X9290Y4709D1*
X9174Y4663D1*
X9051Y4649D1*
X8927Y4668D1*
X8814Y4718D1*
X8732Y4784D1*
X10302Y4785D2*
Y4324D1*
X10962Y4325D1*
X10958Y4781D1*
X10860Y4709D1*
X10744Y4663D1*
X10621Y4649D1*
X10497Y4668D1*
X10384Y4718D1*
X10302Y4784D1*
X11092Y5951D2*
Y5459D1*
X11206Y5540D1*
X11324Y5582D1*
X11448Y5591D1*
X11570Y5567D1*
X11682Y5512D1*
X11738Y5463D1*
Y5947D1*
X11090D1*
X11882Y4769D2*
Y4324D1*
X12532Y4325D1*
X12528Y4648D1*
X12518D1*
Y4770D1*
X12430Y4709D1*
X12314Y4663D1*
X12191Y4649D1*
X12067Y4668D1*
X11954Y4718D1*
X11884Y4775D1*
X13452Y4652D2*
Y4324D1*
X14212Y4325D1*
X13907Y4627D1*
X13835Y4741D1*
X13685Y4735D1*
X13568Y4786D1*
X13459Y4890D1*
X13462Y4648D1*
X13450D1*
X8829Y7853D2*
Y7580D1*
X9016Y7392D1*
X10008Y7390D1*
X10011Y7524D1*
X9958Y7610D1*
X8964D1*
X8961Y7855D1*
X8832D1*
X10458Y8855D2*
Y8784D1*
X10527Y8853D1*
X10631Y8922D1*
X10750Y8945D1*
X11629D1*
X11716Y8983D1*
X11840Y8994D1*
X11960Y8963D1*
X12063Y8893D1*
X12137Y8792D1*
X12172Y8673D1*
X12175Y8630D1*
X12154Y8507D1*
X12129Y8463D1*
X12155Y8330D1*
X12134Y8207D1*
X12094Y8136D1*
X12460Y7766D1*
X12595Y7638D1*
X12769D1*
Y6580D1*
X12890Y6594D1*
X12946Y6579D1*
X12947Y7638D1*
X13845D1*
X13860Y7732D1*
X13914Y7844D1*
X14003Y7931D1*
X14116Y7983D1*
X14240Y7994D1*
X14274Y7985D1*
X14682Y7984D1*
X14743Y8075D1*
Y10798D1*
X14704Y10759D1*
X14601Y10690D1*
X14482Y10667D1*
X14353D1*
Y10643D1*
X14427Y10542D1*
X14462Y10423D1*
X14465Y10380D1*
X14444Y10257D1*
X14383Y10149D1*
X14289Y10068D1*
X14198Y10032D1*
X13705Y9540D1*
X13602Y9471D1*
X13483Y9448D1*
X13197D1*
X13085Y9405D1*
X12961Y9401D1*
X12843Y9439D1*
X12744Y9515D1*
X12677Y9620D1*
X12663Y9677D1*
X12556Y9590D1*
X12465Y9499D1*
X12475Y9410D1*
X12454Y9287D1*
X12393Y9179D1*
X12299Y9098D1*
X12183Y9052D1*
X12059Y9049D1*
X11940Y9087D1*
X11842Y9163D1*
X11774Y9267D1*
X11746Y9388D1*
X11760Y9512D1*
X11795Y9598D1*
X11823Y9719D1*
X11901Y9827D1*
X11885Y9810D1*
X11803Y9792D1*
X11679Y9789D1*
X11560Y9827D1*
X11532Y9848D1*
X11419Y9849D1*
X11297Y9889D1*
X10720Y9315D1*
X10735Y9210D1*
X10714Y9087D1*
X10653Y8979D1*
X10559Y8898D1*
X10461Y8859D1*
X10533Y8858D1*
X10638Y8924D1*
X10750Y8945D1*
X13871Y7494D2*
Y6462D1*
X13934Y6441D1*
X14035Y6373D1*
X14145Y6264D1*
X14265Y6235D1*
X14332Y6187D1*
X14533Y5985D1*
X14535Y7357D1*
X14283Y7272D1*
X14159Y7269D1*
X14040Y7307D1*
X13942Y7383D1*
X13871Y7499D1*
X7266Y9229D2*
X7320Y9224D1*
X7466Y9229D1*
X7500Y9230D1*
X7635Y9224D1*
X7692Y9230D1*
X7708Y9284D1*
X7699Y9416D1*
X7708Y9442D1*
X7699Y9574D1*
X7732Y9665D1*
X7646Y9682D1*
X7537Y9668D1*
X7488Y9682D1*
X7379Y9668D1*
X7331Y9682D1*
X7262Y9568D1*
X7264Y9530D1*
X7251Y9466D1*
X7264Y9373D1*
X7251Y9308D1*
X7263Y9235D1*
X5792Y6628D2*
X5788Y6330D1*
X6331D1*
Y6812D1*
X6176Y6966D1*
X6133Y6899D1*
X6039Y6818D1*
X5948Y6782D1*
X5792Y6627D1*
X5788Y6338D1*
X5792Y6382D1*
Y6331D1*
X4672Y10985D2*
X4722D1*
X4724Y11201D1*
X4977D1*
X4934Y11268D1*
X4905Y11400D1*
X4906Y11406D1*
X4750Y11465D1*
X4470D1*
X4357Y11486D1*
X4325Y11450D1*
Y11204D1*
X4446Y11201D1*
Y10986D1*
X4672Y10985D1*
X4832Y7660D2*
X4724D1*
Y7937D1*
X4424Y7935D1*
X4427Y7699D1*
X4322D1*
X4325Y7430D1*
X4390Y7496D1*
X4493Y7564D1*
X4613Y7588D1*
X4765D1*
D22*
X8075Y10615D3*
X7406D3*
D23*
X8620Y9200D3*
Y9869D3*
D22*
X7450Y8305D3*
X8119D3*
D25*
X5230Y5020D3*
Y5611D3*
X4848Y14127D3*
Y13537D3*
X4347Y14127D3*
Y13537D3*
X4370Y5015D3*
Y5605D3*
X4810Y5015D3*
Y5605D3*
X5300Y14110D3*
Y13519D3*
D27*
X4387Y4387D3*
X5254D3*
D29*
X5638Y8938D3*
Y9194D3*
Y9450D3*
Y9706D3*
Y9962D3*
D30*
X5510Y8230D3*
Y10670D3*
D31*
X4585Y7836D3*
Y11064D3*
D32*
Y9115D3*
Y9785D3*
D33*
X5910Y14410D3*
X6700Y13150D3*
X7480Y14410D3*
X8270Y13150D3*
X9060Y14410D3*
X9840Y13150D3*
X10630Y14410D3*
X11420Y13150D3*
X12200Y14410D3*
X12990Y13150D3*
D34*
X6700Y13780D3*
X7480D3*
X5910D3*
X8270D3*
X9060D3*
X9840D3*
X10630D3*
X11420D3*
X12200D3*
D35*
X12990D3*
D33*
X5910Y5750D3*
X6700Y4490D3*
X7480Y5750D3*
X8270Y4490D3*
X9060Y5750D3*
X9840Y4490D3*
X10630Y5750D3*
X11420Y4490D3*
X12200Y5750D3*
X12990Y4490D3*
D34*
X6700Y5120D3*
X7480D3*
X5910D3*
X8270D3*
X9060D3*
X9840D3*
X10630D3*
X11420D3*
X12200D3*
D35*
X12990D3*
D23*
X5330Y6820D3*
Y6151D3*
X4950Y12377D3*
Y13047D3*
X4387Y12377D3*
Y13047D3*
Y6825D3*
Y6156D3*
X4858Y6825D3*
Y6156D3*
X5430Y12390D3*
Y13059D3*
D37*
X8387Y11330D3*
X6773D3*
Y12190D3*
X8387D3*
Y6715D3*
X6773D3*
Y7575D3*
X8387D3*
D38*
X14512Y12009D3*
X13960D3*
X13409D3*
X12858D3*
X12307D3*
X11756D3*
X11205D3*
X10653D3*
D39*
X9711Y11379D3*
Y10828D3*
Y10277D3*
Y9726D3*
Y9174D3*
Y8623D3*
Y8072D3*
Y7521D3*
D38*
X10653Y6891D3*
X11205D3*
X11756D3*
X12307D3*
X12858D3*
X13409D3*
X13960D3*
X14512D3*
G36*
X13963Y5818D2*
X14144Y5999D1*
X14437Y5707D1*
X14256Y5526D1*
X13963Y5818D1*
G37*
G36*
X13434Y5289D2*
X13615Y5470D1*
X13908Y5178D1*
X13727Y4997D1*
X13434Y5289D1*
G37*
G36*
X14339Y4913D2*
X14520Y5094D1*
X14812Y4802D1*
X14631Y4621D1*
X14339Y4913D1*
G37*
D46*
X7086Y8861D3*
X7244D3*
X7401D3*
X7559D3*
X7716D3*
X7874D3*
D47*
X8071Y9058D3*
Y9215D3*
Y9373D3*
Y9530D3*
Y9688D3*
Y9845D3*
D46*
X7874Y10042D3*
X7716D3*
X7559D3*
X7401D3*
X7244D3*
X7086D3*
D47*
X6889Y9845D3*
Y9688D3*
Y9530D3*
Y9373D3*
Y9215D3*
Y9058D3*
D48*
X7480Y9450D3*
M02*
